<svg width="698" height="480" viewBox="0 0 698 480" fill="none" xmlns="http://www.w3.org/2000/svg">
<g filter="url(#filter0_d_227_2010)">
<g filter="url(#filter1_ii_227_2010)">
<path d="M445.897 297.386C425.002 309.45 402.499 317.537 378.389 321.647C354.278 325.757 330.513 326.088 307.091 322.641C283.899 319.062 262.889 311.837 244.06 300.966C225.001 289.962 212.832 278.163 207.55 265.569C202.269 252.71 202.154 239.651 207.206 226.394C212.257 212.872 220.868 199.548 233.038 186.424C244.979 173.166 259.1 160.506 275.403 148.442C291.707 136.112 308.354 124.91 325.346 114.835C293.199 96.2746 265.874 87.79 243.371 89.3808C220.868 90.9717 197.677 98.6609 173.796 112.448C161.167 119.74 149.571 128.688 139.008 139.294C128.675 149.767 120.753 163.754 115.242 181.253L56 157.39C59.2147 143.603 67.7107 129.02 81.488 113.642C95.0357 98.1306 112.946 83.9454 135.219 71.0859C163.693 54.647 191.706 44.3064 219.261 40.064C246.586 35.6892 276.092 38.0092 307.78 47.0241C339.468 56.039 375.633 72.2791 416.276 95.7443L485.163 135.516C501.236 144.796 515.243 152.087 527.183 157.39C539.124 162.428 550.375 164.947 560.938 164.947C571.5 164.682 582.752 161.102 594.692 154.209L600.892 150.629L640.846 184.833L636.024 187.617C616.047 199.151 598.596 206.972 583.67 211.082C568.975 215.059 555.082 216.584 541.994 215.656C528.906 214.728 514.784 212.54 499.629 209.093C501.695 224.869 498.71 240.38 490.674 255.626C482.637 270.872 467.711 284.792 445.897 297.386ZM408.01 261.99C424.543 252.444 436.368 240.844 443.486 227.189C450.834 213.402 452.556 199.681 448.653 186.026L368.056 139.493C336.368 159.114 312.947 176.348 297.792 191.196C282.866 205.912 275.977 219.036 277.126 230.57C278.274 242.104 287.229 252.71 303.991 262.387C322.131 272.861 340.157 277.699 358.067 276.904C375.978 275.843 392.625 270.872 408.01 261.99Z" fill="#F178B6" fill-opacity="0.32"/>
<path fill-rule="evenodd" clip-rule="evenodd" d="M445.933 296.643C425.037 308.707 402.534 316.794 378.424 320.904C354.314 325.014 330.548 325.345 307.127 321.898C283.935 318.319 262.924 311.093 244.096 300.223C225.037 289.219 212.867 277.42 207.586 264.826C202.304 251.966 202.19 238.908 207.241 225.651C212.293 212.128 220.904 198.805 233.074 185.68C245.014 172.423 259.136 159.762 275.439 147.698C291.742 135.369 308.39 124.167 325.382 114.091C293.235 95.5313 265.91 87.0467 243.407 88.6375C220.904 90.2284 197.712 97.9176 173.831 111.705C161.202 118.997 149.606 127.945 139.044 138.551C128.711 149.024 120.789 163.01 115.278 180.51L56.0354 156.647C59.2502 142.86 67.7462 128.277 81.5234 112.898C95.0711 97.3873 112.982 83.2021 135.255 70.3426C163.728 53.9037 191.742 43.5631 219.296 39.3207C246.621 34.9459 276.128 37.2659 307.815 46.2808C339.503 55.2957 375.669 71.5358 416.312 95.001L485.198 134.773C501.272 144.053 515.279 151.344 527.219 156.647C539.159 161.685 550.411 164.204 560.973 164.204C571.536 163.938 582.787 160.359 594.728 153.465L600.927 149.886L640.882 184.089L636.06 186.873C616.082 198.407 598.631 206.229 583.706 210.339C569.01 214.316 555.118 215.84 542.03 214.912C528.941 213.984 514.819 211.797 499.664 208.35C501.731 224.126 498.746 239.637 490.709 254.883C482.672 270.129 467.747 284.049 445.933 296.643ZM408.045 261.246C424.578 251.701 436.404 240.101 443.522 226.446C450.87 212.659 452.592 198.938 448.688 185.283L368.091 138.75C336.403 158.37 312.982 175.605 297.827 190.453C282.902 205.168 276.013 218.293 277.161 229.827C278.309 241.361 287.264 251.966 304.027 261.644C322.167 272.117 340.192 276.956 358.103 276.161C376.013 275.1 392.661 270.129 408.045 261.246Z" fill="#F178B6" fill-opacity="0.32"/>
<path fill-rule="evenodd" clip-rule="evenodd" d="M445.968 295.899C425.073 307.963 402.57 316.05 378.46 320.16C354.349 324.27 330.583 324.601 307.162 321.154C283.97 317.575 262.96 310.35 244.131 299.479C225.072 288.475 212.902 276.676 207.621 264.082C202.34 251.223 202.225 238.164 207.277 224.907C212.328 211.385 220.939 198.061 233.109 184.937C245.049 171.679 259.171 159.019 275.474 146.955C291.777 134.625 308.425 123.423 325.417 113.348C293.27 94.7875 265.945 86.3029 243.442 87.8938C220.939 89.4846 197.747 97.1738 173.867 110.961C161.238 118.253 149.642 127.201 139.079 137.807C128.746 148.28 120.824 162.267 115.313 179.766L56.0709 155.903C59.2856 142.116 67.7816 127.533 81.5589 112.154C95.1066 96.6435 113.017 82.4583 135.29 69.5988C163.763 53.1599 191.777 42.8193 219.332 38.577C246.657 34.2021 276.163 36.5221 307.851 45.537C339.539 54.5519 375.704 70.792 416.347 94.2572L485.234 134.029C501.307 143.309 515.314 150.6 527.254 155.903C539.195 160.941 550.446 163.46 561.009 163.46C571.571 163.195 582.823 159.615 594.763 152.722L600.963 149.142L640.917 183.346L636.095 186.13C616.118 197.663 598.667 205.485 583.741 209.595C569.045 213.572 555.153 215.097 542.065 214.169C528.977 213.241 514.855 211.053 499.7 207.606C501.766 223.382 498.781 238.893 490.745 254.139C482.708 269.385 467.782 283.305 445.968 295.899ZM408.081 260.503C424.613 250.957 436.439 239.357 443.557 225.702C450.905 211.915 452.627 198.194 448.724 184.539L368.127 138.006C336.439 157.627 313.017 174.861 297.862 189.709C282.937 204.425 276.048 217.549 277.196 229.083C278.345 240.617 287.3 251.223 304.062 260.9C322.202 271.374 340.228 276.212 358.138 275.417C376.049 274.356 392.696 269.385 408.081 260.503Z" fill="#F178B6" fill-opacity="0.32"/>
<path fill-rule="evenodd" clip-rule="evenodd" d="M446.004 295.156C425.109 307.22 402.606 315.307 378.495 319.417C354.385 323.526 330.619 323.858 307.198 320.411C284.006 316.832 262.996 309.606 244.167 298.736C225.108 287.732 212.938 275.933 207.657 263.339C202.376 250.479 202.261 237.421 207.313 224.164C212.364 210.641 220.975 197.318 233.145 184.193C245.085 170.936 259.207 158.275 275.51 146.211C291.813 133.882 308.461 122.68 325.453 112.604C293.306 94.0442 265.981 85.5596 243.478 87.1505C220.975 88.7413 197.783 96.4305 173.903 110.218C161.273 117.509 149.678 126.458 139.115 137.064C128.782 147.537 120.86 161.523 115.349 179.023L56.1068 155.16C59.3215 141.372 67.8175 126.79 81.5948 111.411C95.1425 95.9002 113.053 81.715 135.326 68.8556C163.799 52.4166 191.813 42.076 219.368 37.8337C246.693 33.4588 276.199 35.7788 307.887 44.7937C339.575 53.8086 375.74 70.0487 416.383 93.5139L485.27 133.286C501.343 142.566 515.35 149.857 527.29 155.16C539.231 160.198 550.482 162.717 561.045 162.717C571.607 162.451 582.859 158.872 594.799 151.978L600.999 148.399L640.953 182.602L636.131 185.386C616.154 196.92 598.703 204.742 583.777 208.852C569.081 212.829 555.189 214.353 542.101 213.425C529.012 212.497 514.891 210.31 499.736 206.863C501.802 222.639 498.817 238.15 490.78 253.396C482.744 268.642 467.818 282.562 446.004 295.156ZM408.117 259.759C424.649 250.214 436.475 238.614 443.593 224.959C450.941 211.172 452.663 197.45 448.76 183.796L368.163 137.263C336.475 156.883 313.053 174.118 297.898 188.966C282.973 203.681 276.084 216.806 277.232 228.34C278.38 239.874 287.336 250.479 304.098 260.157C322.238 270.63 340.263 275.469 358.174 274.674C376.084 273.613 392.732 268.642 408.117 259.759Z" fill="#F178B6" fill-opacity="0.32"/>
<path fill-rule="evenodd" clip-rule="evenodd" d="M446.04 294.412C425.144 306.476 402.641 314.563 378.531 318.673C354.421 322.783 330.655 323.114 307.233 319.667C284.042 316.088 263.031 308.863 244.202 297.992C225.144 286.988 212.974 275.189 207.692 262.595C202.411 249.735 202.296 236.677 207.348 223.42C212.4 209.898 221.011 196.574 233.18 183.449C245.121 170.192 259.243 157.532 275.546 145.468C291.849 133.138 308.496 121.936 325.488 111.861C293.341 93.3005 266.016 84.8158 243.513 86.4067C221.011 87.9976 197.819 95.6868 173.938 109.474C161.309 116.766 149.713 125.714 139.15 136.32C128.817 146.793 120.896 160.78 115.385 178.279L56.1422 154.416C59.357 140.629 67.853 126.046 81.6302 110.667C95.1779 95.1565 113.088 80.9713 135.362 68.1118C163.835 51.6728 191.849 41.3322 219.403 37.0899C246.728 32.715 276.235 35.035 307.922 44.0499C339.61 53.0648 375.775 69.3049 416.418 92.7702L485.305 132.542C501.378 141.822 515.385 149.113 527.326 154.416C539.266 159.454 550.517 161.973 561.08 161.973C571.643 161.708 582.894 158.128 594.834 151.234L601.034 147.655L640.988 181.859L636.166 184.643C616.189 196.176 598.738 203.998 583.813 208.108C569.117 212.085 555.225 213.61 542.136 212.682C529.048 211.754 514.926 209.566 499.771 206.119C501.838 221.895 498.853 237.406 490.816 252.652C482.779 267.898 467.854 281.818 446.04 294.412ZM408.152 259.016C424.685 249.47 436.51 237.87 443.629 224.215C450.977 210.428 452.699 196.707 448.795 183.052L368.198 136.519C336.51 156.14 313.089 173.374 297.934 188.222C283.008 202.938 276.12 216.062 277.268 227.596C278.416 239.13 287.371 249.735 304.134 259.413C322.274 269.886 340.299 274.725 358.209 273.93C376.12 272.869 392.767 267.898 408.152 259.016Z" fill="#F178B6" fill-opacity="0.32"/>
<path fill-rule="evenodd" clip-rule="evenodd" d="M446.075 293.669C425.18 305.733 402.677 313.82 378.566 317.93C354.456 322.039 330.69 322.371 307.269 318.924C284.077 315.345 263.067 308.119 244.238 297.248C225.179 286.245 213.009 274.446 207.728 261.852C202.447 248.992 202.332 235.934 207.383 222.677C212.435 209.154 221.046 195.831 233.216 182.706C245.156 169.449 259.278 156.788 275.581 144.724C291.884 132.395 308.532 121.193 325.524 111.117C293.377 92.5572 266.052 84.0726 243.549 85.6634C221.046 87.2543 197.854 94.9435 173.974 108.731C161.344 116.022 149.748 124.971 139.186 135.577C128.853 146.05 120.931 160.036 115.42 177.536L56.1777 153.673C59.3924 139.885 67.8884 125.302 81.6657 109.924C95.2134 94.4132 113.124 80.228 135.397 67.3685C163.87 50.9296 191.884 40.5889 219.439 36.3466C246.764 31.9717 276.27 34.2917 307.958 43.3066C339.646 52.3215 375.811 68.5616 416.454 92.0269L485.34 131.799C501.414 141.079 515.421 148.37 527.361 153.673C539.301 158.711 550.553 161.229 561.116 161.229C571.678 160.964 582.93 157.385 594.87 150.491L601.07 146.912L641.024 181.115L636.202 183.899C616.225 195.433 598.773 203.255 583.848 207.365C569.152 211.342 555.26 212.866 542.172 211.938C529.083 211.01 514.962 208.823 499.807 205.376C501.873 221.152 498.888 236.663 490.851 251.909C482.815 267.155 467.889 281.075 446.075 293.669ZM408.188 258.272C424.72 248.727 436.546 237.127 443.664 223.472C451.012 209.685 452.734 195.963 448.831 182.308L368.233 135.776C336.546 155.396 313.124 172.631 297.969 187.479C283.044 202.194 276.155 215.319 277.303 226.853C278.451 238.386 287.407 248.992 304.169 258.67C322.309 269.143 340.334 273.982 358.245 273.187C376.155 272.126 392.803 267.155 408.188 258.272Z" fill="#F178B6" fill-opacity="0.32"/>
<path fill-rule="evenodd" clip-rule="evenodd" d="M446.111 292.925C425.215 304.989 402.712 313.076 378.602 317.186C354.492 321.296 330.726 321.627 307.304 318.18C284.113 314.601 263.102 307.376 244.273 296.505C225.215 285.501 213.045 273.702 207.763 261.108C202.482 248.248 202.367 235.19 207.419 221.933C212.471 208.411 221.081 195.087 233.251 181.962C245.192 168.705 259.313 156.045 275.617 143.98C291.92 131.651 308.567 120.449 325.559 110.373C293.412 91.8134 266.087 83.3288 243.584 84.9196C221.081 86.5105 197.89 94.1997 174.009 107.987C161.38 115.279 149.784 124.227 139.221 134.833C128.888 145.306 120.966 159.293 115.455 176.792L56.2131 152.929C59.4278 139.142 67.9238 124.559 81.7011 109.18C95.2488 93.6694 113.159 79.4842 135.433 66.6247C163.906 50.1858 191.92 39.8452 219.474 35.6028C246.799 31.228 276.305 33.548 307.993 42.5629C339.681 51.5778 375.846 67.8179 416.489 91.2831L485.376 131.055C501.449 140.335 515.456 147.626 527.397 152.929C539.337 157.967 550.588 160.486 561.151 160.486C571.714 160.221 582.965 156.641 594.905 149.747L601.105 146.168L641.059 180.372L636.237 183.156C616.26 194.689 598.809 202.511 583.883 206.621C569.188 210.598 555.296 212.123 542.207 211.195C529.119 210.267 514.997 208.079 499.842 204.632C501.909 220.408 498.923 235.919 490.887 251.165C482.85 266.411 467.925 280.331 446.111 292.925ZM408.223 257.528C424.756 247.983 436.581 236.383 443.7 222.728C451.047 208.941 452.77 195.22 448.866 181.565L368.269 135.032C336.581 154.653 313.16 171.887 298.005 186.735C283.079 201.45 276.191 214.575 277.339 226.109C278.487 237.643 287.442 248.248 304.204 257.926C322.345 268.399 340.37 273.238 358.28 272.443C376.191 271.382 392.838 266.411 408.223 257.528Z" fill="#F178B6" fill-opacity="0.32"/>
<path fill-rule="evenodd" clip-rule="evenodd" d="M446.146 292.182C425.251 304.246 402.748 312.333 378.638 316.443C354.527 320.552 330.762 320.884 307.34 317.437C284.148 313.857 263.138 306.632 244.309 295.761C225.251 284.758 213.081 272.959 207.799 260.365C202.518 247.505 202.403 234.447 207.455 221.19C212.507 207.667 221.117 194.344 233.287 181.219C245.228 167.962 259.349 155.301 275.652 143.237C291.956 130.908 308.603 119.706 325.595 109.63C293.448 91.0701 266.123 82.5855 243.62 84.1763C221.117 85.7672 197.926 93.4564 174.045 107.244C161.416 114.535 149.82 123.484 139.257 134.09C128.924 144.563 121.002 158.549 115.491 176.049L56.2491 152.186C59.4638 138.398 67.9598 123.815 81.7371 108.437C95.2847 92.9261 113.195 78.7409 135.469 65.8814C163.942 49.4425 191.955 39.1019 219.51 34.8595C246.835 30.4847 276.341 32.8047 308.029 41.8196C339.717 50.8345 375.882 67.0746 416.525 90.5398L485.412 130.311C501.485 139.591 515.492 146.883 527.432 152.186C539.373 157.224 550.624 159.742 561.187 159.742C571.749 159.477 583.001 155.898 594.941 149.004L601.141 145.425L641.095 179.628L636.273 182.412C616.296 193.946 598.845 201.768 583.919 205.878C569.224 209.855 555.332 211.379 542.243 210.451C529.155 209.523 515.033 207.336 499.878 203.889C501.945 219.665 498.959 235.176 490.923 250.422C482.886 265.668 467.961 279.588 446.146 292.182ZM408.259 256.785C424.792 247.24 436.617 235.64 443.735 221.985C451.083 208.198 452.805 194.476 448.902 180.821L368.305 134.289C336.617 153.909 313.196 171.144 298.041 185.992C283.115 200.707 276.227 213.832 277.375 225.366C278.523 236.899 287.478 247.505 304.24 257.183C322.38 267.656 340.406 272.495 358.316 271.7C376.227 270.639 392.874 265.668 408.259 256.785Z" fill="#F178B6" fill-opacity="0.32"/>
<path fill-rule="evenodd" clip-rule="evenodd" d="M446.182 291.438C425.286 303.502 402.783 311.589 378.673 315.699C354.563 319.809 330.797 320.14 307.376 316.693C284.184 313.114 263.174 305.888 244.345 295.018C225.286 284.014 213.116 272.215 207.835 259.621C202.553 246.761 202.439 233.703 207.49 220.446C212.542 206.923 221.153 193.6 233.323 180.475C245.263 167.218 259.385 154.557 275.688 142.493C291.991 130.164 308.639 118.962 325.631 108.886C293.484 90.3263 266.159 81.8417 243.656 83.4326C221.153 85.0234 197.961 92.7126 174.08 106.5C161.451 113.792 149.855 122.74 139.293 133.346C128.96 143.819 121.038 157.806 115.527 175.305L56.2845 151.442C59.4992 137.655 67.9952 123.072 81.7725 107.693C95.3202 92.1823 113.231 77.9971 135.504 65.1376C163.977 48.6987 191.991 38.3581 219.545 34.1158C246.87 29.7409 276.377 32.0609 308.065 41.0758C339.752 50.0907 375.918 66.3308 416.561 89.796L485.447 129.568C501.521 138.848 515.528 146.139 527.468 151.442C539.408 156.48 550.66 158.999 561.222 158.999C571.785 158.734 583.036 155.154 594.977 148.26L601.177 144.681L641.131 178.884L636.309 181.668C616.331 193.202 598.88 201.024 583.955 205.134C569.259 209.111 555.367 210.635 542.279 209.707C529.19 208.779 515.068 206.592 499.913 203.145C501.98 218.921 498.995 234.432 490.958 249.678C482.921 264.924 467.996 278.844 446.182 291.438ZM408.294 256.041C424.827 246.496 436.653 234.896 443.771 221.241C451.119 207.454 452.841 193.733 448.937 180.078L368.34 133.545C336.652 153.165 313.231 170.4 298.076 185.248C283.151 199.963 276.262 213.088 277.41 224.622C278.558 236.156 287.513 246.761 304.276 256.439C322.416 266.912 340.441 271.751 358.352 270.956C376.262 269.895 392.91 264.924 408.294 256.041Z" fill="#F178B6" fill-opacity="0.32"/>
<path fill-rule="evenodd" clip-rule="evenodd" d="M446.217 290.695C425.322 302.759 402.819 310.846 378.709 314.956C354.598 319.065 330.833 319.397 307.411 315.95C284.219 312.37 263.209 305.145 244.38 294.274C225.321 283.271 213.151 271.472 207.87 258.878C202.589 246.018 202.474 232.96 207.526 219.703C212.577 206.18 221.188 192.857 233.358 179.732C245.298 166.475 259.42 153.814 275.723 141.75C292.026 129.421 308.674 118.219 325.666 108.143C293.519 89.583 266.194 81.0984 243.691 82.6893C221.188 84.2801 197.996 91.9693 174.116 105.757C161.487 113.048 149.891 121.997 139.328 132.603C128.995 143.076 121.073 157.062 115.562 174.562L56.3199 150.699C59.5347 136.911 68.0307 122.328 81.8079 106.95C95.3556 91.439 113.266 77.2538 135.539 64.3944C164.012 47.9554 192.026 37.6148 219.581 33.3725C246.906 28.9976 276.412 31.3176 308.1 40.3325C339.788 49.3474 375.953 65.5875 416.596 89.0527L485.483 128.824C501.556 138.104 515.563 145.396 527.503 150.699C539.444 155.736 550.695 158.255 561.258 158.255C571.82 157.99 583.072 154.411 595.012 147.517L601.212 143.938L641.166 178.141L636.344 180.925C616.367 192.459 598.916 200.281 583.99 204.39C569.294 208.368 555.402 209.892 542.314 208.964C529.226 208.036 515.104 205.849 499.949 202.402C502.015 218.178 499.03 233.689 490.994 248.935C482.957 264.18 468.031 278.101 446.217 290.695ZM408.33 255.298C424.863 245.753 436.688 234.153 443.806 220.498C451.154 206.71 452.876 192.989 448.973 179.334L368.376 132.802C336.688 152.422 313.266 169.657 298.111 184.505C283.186 199.22 276.297 212.345 277.446 223.879C278.594 235.412 287.549 246.018 304.311 255.696C322.451 266.169 340.477 271.008 358.387 270.212C376.298 269.152 392.945 264.18 408.33 255.298Z" fill="#F178B6" fill-opacity="0.32"/>
<path fill-rule="evenodd" clip-rule="evenodd" d="M446.253 289.951C425.357 302.015 402.854 310.102 378.744 314.212C354.634 318.322 330.868 318.653 307.447 315.206C284.255 311.627 263.244 304.401 244.415 293.531C225.357 282.527 213.187 270.728 207.906 258.134C202.624 245.274 202.51 232.216 207.561 218.959C212.613 205.436 221.224 192.113 233.394 178.988C245.334 165.731 259.456 153.07 275.759 141.006C292.062 128.677 308.709 117.475 325.701 107.399C293.554 88.8393 266.23 80.3546 243.727 81.9455C221.224 83.5364 198.032 91.2256 174.151 105.013C161.522 112.305 149.926 121.253 139.364 131.859C129.031 142.332 121.109 156.318 115.598 173.818L56.3554 149.955C59.5701 136.167 68.0661 121.585 81.8434 106.206C95.3911 90.6953 113.302 76.5101 135.575 63.6506C164.048 47.2116 192.062 36.871 219.616 32.6287C246.941 28.2538 276.448 30.5738 308.135 39.5887C339.823 48.6036 375.989 64.8437 416.632 88.309L485.518 128.081C501.592 137.361 515.599 144.652 527.539 149.955C539.479 154.993 550.731 157.512 561.293 157.512C571.856 157.246 583.107 153.667 595.048 146.773L601.247 143.194L641.202 177.397L636.379 180.181C616.402 191.715 598.951 199.537 584.026 203.647C569.33 207.624 555.438 209.148 542.349 208.22C529.261 207.292 515.139 205.105 499.984 201.658C502.051 217.434 499.066 232.945 491.029 248.191C482.992 263.437 468.067 277.357 446.253 289.951ZM408.365 254.554C424.898 245.009 436.724 233.409 443.842 219.754C451.19 205.967 452.912 192.245 449.008 178.591L368.411 132.058C336.723 151.678 313.302 168.913 298.147 183.761C283.221 198.476 276.333 211.601 277.481 223.135C278.629 234.669 287.584 245.274 304.347 254.952C322.487 265.425 340.512 270.264 358.423 269.469C376.333 268.408 392.981 263.437 408.365 254.554Z" fill="#F178B6" fill-opacity="0.32"/>
<path fill-rule="evenodd" clip-rule="evenodd" d="M446.288 289.208C425.393 301.272 402.89 309.359 378.779 313.468C354.669 317.578 330.903 317.91 307.482 314.463C284.29 310.883 263.28 303.658 244.451 292.787C225.392 281.784 213.222 269.985 207.941 257.391C202.66 244.531 202.545 231.473 207.597 218.215C212.648 204.693 221.259 191.37 233.429 178.245C245.369 164.988 259.491 152.327 275.794 140.263C292.097 127.934 308.745 116.732 325.737 106.656C293.59 88.096 266.265 79.6114 243.762 81.2022C221.259 82.7931 198.067 90.4823 174.187 104.27C161.558 111.561 149.962 120.51 139.399 131.116C129.066 141.589 121.144 155.575 115.633 173.075L56.3908 149.212C59.6055 135.424 68.1015 120.841 81.8788 105.463C95.4265 89.952 113.337 75.7668 135.61 62.9073C164.083 46.4684 192.097 36.1277 219.652 31.8854C246.977 27.5105 276.483 29.8305 308.171 38.8454C339.859 47.8604 376.024 64.1004 416.667 87.5657L485.553 127.337C501.627 136.617 515.634 143.909 527.574 149.212C539.515 154.249 550.766 156.768 561.329 156.768C571.891 156.503 583.143 152.924 595.083 146.03L601.283 142.451L641.237 176.654L636.415 179.438C616.438 190.972 598.987 198.794 584.061 202.903C569.365 206.881 555.473 208.405 542.385 207.477C529.296 206.549 515.175 204.362 500.02 200.915C502.086 216.691 499.101 232.202 491.064 247.448C483.028 262.693 468.102 276.613 446.288 289.208ZM408.401 253.811C424.933 244.266 436.759 232.666 443.877 219.011C451.225 205.223 452.947 191.502 449.044 177.847L368.447 131.314C336.759 150.935 313.337 168.169 298.182 183.018C283.257 197.733 276.368 210.858 277.516 222.391C278.665 233.925 287.62 244.531 304.382 254.209C322.522 264.682 340.548 269.521 358.458 268.725C376.368 267.665 393.016 262.693 408.401 253.811Z" fill="#F178B6" fill-opacity="0.32"/>
<path fill-rule="evenodd" clip-rule="evenodd" d="M446.324 288.464C425.429 300.528 402.926 308.615 378.815 312.725C354.705 316.834 330.939 317.166 307.518 313.719C284.326 310.14 263.316 302.914 244.487 292.043C225.428 281.04 213.258 269.241 207.977 256.647C202.696 243.787 202.581 230.729 207.633 217.472C212.684 203.949 221.295 190.626 233.465 177.501C245.405 164.244 259.527 151.583 275.83 139.519C292.133 127.19 308.781 115.988 325.773 105.912C293.626 87.3522 266.301 78.8676 243.798 80.4584C221.295 82.0493 198.103 89.7385 174.223 103.526C161.593 110.817 149.998 119.766 139.435 130.372C129.102 140.845 121.18 154.831 115.669 172.331L56.4267 148.468C59.6415 134.68 68.1375 120.097 81.9147 104.719C95.4624 89.2082 113.373 75.023 135.646 62.1635C164.119 45.7246 192.133 35.384 219.688 31.1416C247.013 26.7668 276.519 29.0868 308.207 38.1017C339.895 47.1166 376.06 63.3567 416.703 86.8219L485.589 126.594C501.663 135.874 515.67 143.165 527.61 148.468C539.551 153.506 550.802 156.025 561.365 156.025C571.927 155.759 583.179 152.18 595.119 145.286L601.319 141.707L641.273 175.91L636.451 178.694C616.474 190.228 599.022 198.05 584.097 202.16C569.401 206.137 555.509 207.661 542.421 206.733C529.332 205.805 515.211 203.618 500.056 200.171C502.122 215.947 499.137 231.458 491.1 246.704C483.064 261.95 468.138 275.87 446.324 288.464ZM408.437 253.067C424.969 243.522 436.795 231.922 443.913 218.267C451.261 204.48 452.983 190.758 449.08 177.103L368.482 130.571C336.795 150.191 313.373 167.426 298.218 182.274C283.293 196.989 276.404 210.114 277.552 221.648C278.7 233.181 287.656 243.787 304.418 253.465C322.558 263.938 340.583 268.777 358.494 267.982C376.404 266.921 393.052 261.95 408.437 253.067Z" fill="#F178B6" fill-opacity="0.32"/>
<path fill-rule="evenodd" clip-rule="evenodd" d="M446.36 287.721C425.464 299.785 402.961 307.872 378.851 311.981C354.741 316.091 330.975 316.423 307.553 312.976C284.362 309.396 263.351 302.171 244.522 291.3C225.464 280.297 213.294 268.498 208.012 255.903C202.731 243.044 202.616 229.986 207.668 216.728C212.72 203.206 221.33 189.883 233.5 176.758C245.441 163.501 259.562 150.84 275.866 138.776C292.169 126.447 308.816 115.244 325.808 105.169C293.661 86.6089 266.336 78.1243 243.833 79.7151C221.33 81.306 198.139 88.9952 174.258 102.783C161.629 110.074 150.033 119.023 139.47 129.629C129.137 140.102 121.215 154.088 115.705 171.588L56.4622 147.725C59.6769 133.937 68.1729 119.354 81.9502 103.976C95.4979 88.4649 113.408 74.2797 135.682 61.4202C164.155 44.9813 192.169 34.6407 219.723 30.3983C247.048 26.0235 276.554 28.3435 308.242 37.3584C339.93 46.3733 376.095 62.6134 416.738 86.0786L485.625 125.85C501.698 135.13 515.705 142.422 527.646 147.725C539.586 152.762 550.837 155.281 561.4 155.281C571.963 155.016 583.214 151.437 595.154 144.543L601.354 140.963L641.308 175.167L636.486 177.951C616.509 189.485 599.058 197.307 584.133 201.416C569.437 205.393 555.545 206.918 542.456 205.99C529.368 205.062 515.246 202.875 500.091 199.428C502.158 215.204 499.173 230.715 491.136 245.961C483.099 261.206 468.174 275.126 446.36 287.721ZM408.472 252.324C425.005 242.779 436.83 231.179 443.949 217.524C451.296 203.736 453.019 190.015 449.115 176.36L368.518 129.827C336.83 149.448 313.409 166.682 298.254 181.531C283.328 196.246 276.44 209.371 277.588 220.904C278.736 232.438 287.691 243.044 304.453 252.722C322.594 263.195 340.619 268.034 358.529 267.238C376.44 266.178 393.087 261.206 408.472 252.324Z" fill="#F178B6" fill-opacity="0.32"/>
<path fill-rule="evenodd" clip-rule="evenodd" d="M446.395 286.977C425.499 299.041 402.997 307.128 378.886 311.238C354.776 315.347 331.01 315.679 307.589 312.232C284.397 308.652 263.387 301.427 244.558 290.556C225.499 279.553 213.329 267.754 208.048 255.16C202.767 242.3 202.652 229.242 207.703 215.985C212.755 202.462 221.366 189.139 233.536 176.014C245.476 162.757 259.598 150.096 275.901 138.032C292.204 125.703 308.852 114.501 325.844 104.425C293.697 85.8651 266.372 77.3805 243.869 78.9714C221.366 80.5622 198.174 88.2514 174.294 102.039C161.664 109.33 150.068 118.279 139.506 128.885C129.173 139.358 121.251 153.344 115.74 170.844L56.4976 146.981C59.7123 133.193 68.2083 118.61 81.9856 103.232C95.5333 87.7211 113.444 73.5359 135.717 60.6764C164.19 44.2375 192.204 33.8969 219.759 29.6546C247.084 25.2797 276.59 27.5997 308.278 36.6146C339.965 45.6295 376.131 61.8696 416.774 85.3348L485.66 125.106C501.734 134.387 515.741 141.678 527.681 146.981C539.621 152.019 550.873 154.537 561.435 154.537C571.998 154.272 583.25 150.693 595.19 143.799L601.39 140.22L641.344 174.423L636.522 177.207C616.545 188.741 599.093 196.563 584.168 200.673C569.472 204.65 555.58 206.174 542.492 205.246C529.403 204.318 515.282 202.131 500.126 198.684C502.193 214.46 499.208 229.971 491.171 245.217C483.134 260.463 468.209 274.383 446.395 286.977ZM408.507 251.58C425.04 242.035 436.866 230.435 443.984 216.78C451.332 202.993 453.054 189.271 449.15 175.616L368.553 129.084C336.866 148.704 313.444 165.939 298.289 180.787C283.364 195.502 276.475 208.627 277.623 220.161C278.771 231.694 287.727 242.3 304.489 251.978C322.629 262.451 340.654 267.29 358.565 266.495C376.475 265.434 393.123 260.463 408.507 251.58Z" fill="#F178B6" fill-opacity="0.32"/>
<path fill-rule="evenodd" clip-rule="evenodd" d="M446.43 286.234C425.535 298.298 403.032 306.385 378.922 310.494C354.811 314.604 331.046 314.935 307.624 311.489C284.432 307.909 263.422 300.684 244.593 289.813C225.535 278.81 213.365 267.011 208.083 254.416C202.802 241.557 202.687 228.499 207.739 215.241C212.791 201.719 221.401 188.395 233.571 175.271C245.512 162.014 259.633 149.353 275.936 137.289C292.24 124.96 308.887 113.757 325.879 103.682C293.732 85.1218 266.407 76.6372 243.904 78.2281C221.401 79.8189 198.21 87.5081 174.329 101.296C161.7 108.587 150.104 117.536 139.541 128.141C129.208 138.615 121.286 152.601 115.775 170.101L56.5331 146.238C59.7478 132.45 68.2438 117.867 82.0211 102.489C95.5688 86.9779 113.479 72.7926 135.753 59.9332C164.226 43.4942 192.239 33.1536 219.794 28.9113C247.119 24.5364 276.625 26.8564 308.313 35.8713C340.001 44.8862 376.166 61.1263 416.809 84.5916L485.696 124.363C501.769 133.643 515.776 140.935 527.717 146.238C539.657 151.275 550.908 153.794 561.471 153.794C572.034 153.529 583.285 149.95 595.225 143.056L601.425 139.476L641.379 173.68L636.557 176.464C616.58 187.998 599.129 195.82 584.203 199.929C569.508 203.906 555.616 205.431 542.527 204.503C529.439 203.575 515.317 201.388 500.162 197.941C502.229 213.717 499.243 229.228 491.207 244.473C483.17 259.719 468.245 273.639 446.43 286.234ZM408.543 250.837C425.076 241.292 436.901 229.692 444.019 216.037C451.367 202.249 453.09 188.528 449.186 174.873L368.589 128.34C336.901 147.961 313.48 165.195 298.325 180.043C283.399 194.759 276.511 207.884 277.659 219.417C278.807 230.951 287.762 241.557 304.524 251.235C322.664 261.708 340.69 266.547 358.6 265.751C376.511 264.691 393.158 259.719 408.543 250.837Z" fill="#F178B6" fill-opacity="0.32"/>
<path fill-rule="evenodd" clip-rule="evenodd" d="M446.466 285.49C425.57 297.554 403.067 305.641 378.957 309.751C354.847 313.86 331.081 314.192 307.66 310.745C284.468 307.165 263.458 299.94 244.629 289.069C225.57 278.066 213.4 266.267 208.119 253.673C202.837 240.813 202.723 227.755 207.774 214.498C212.826 200.975 221.437 187.652 233.607 174.527C245.547 161.27 259.669 148.609 275.972 136.545C292.275 124.216 308.923 113.014 325.915 102.938C293.768 84.3781 266.443 75.8934 243.94 77.4843C221.437 79.0752 198.245 86.7644 174.364 100.552C161.735 107.843 150.139 116.792 139.577 127.398C129.244 137.871 121.322 151.857 115.811 169.357L56.5685 145.494C59.7832 131.706 68.2792 117.123 82.0565 101.745C95.6042 86.2341 113.515 72.0489 135.788 59.1894C164.261 42.7504 192.275 32.4098 219.829 28.1675C247.154 23.7926 276.661 26.1126 308.349 35.1275C340.036 44.1424 376.202 60.3825 416.845 83.8478L485.731 123.619C501.805 132.899 515.812 140.191 527.752 145.494C539.692 150.532 550.944 153.05 561.506 153.05C572.069 152.785 583.32 149.206 595.261 142.312L601.461 138.733L641.415 172.936L636.593 175.72C616.615 187.254 599.164 195.076 584.239 199.185C569.543 203.163 555.651 204.687 542.563 203.759C529.474 202.831 515.352 200.644 500.197 197.197C502.264 212.973 499.279 228.484 491.242 243.73C483.205 258.975 468.28 272.896 446.466 285.49ZM408.578 250.093C425.111 240.548 436.937 228.948 444.055 215.293C451.403 201.505 453.125 187.784 449.221 174.129L368.624 127.597C336.936 147.217 313.515 164.452 298.36 179.3C283.435 194.015 276.546 207.14 277.694 218.674C278.842 230.207 287.797 240.813 304.56 250.491C322.7 260.964 340.725 265.803 358.636 265.008C376.546 263.947 393.194 258.975 408.578 250.093Z" fill="#F178B6" fill-opacity="0.32"/>
<path fill-rule="evenodd" clip-rule="evenodd" d="M446.502 284.747C425.606 296.811 403.103 304.898 378.993 309.007C354.883 313.117 331.117 313.448 307.696 310.002C284.504 306.422 263.493 299.197 244.665 288.326C225.606 277.323 213.436 265.524 208.155 252.929C202.873 240.07 202.759 227.011 207.81 213.754C212.862 200.232 221.473 186.908 233.643 173.784C245.583 160.527 259.705 147.866 276.008 135.802C292.311 123.473 308.959 112.27 325.951 102.195C293.804 83.6348 266.479 75.1502 243.976 76.741C221.473 78.3319 198.281 86.0211 174.4 99.8086C161.771 107.1 150.175 116.049 139.613 126.654C129.28 137.128 121.358 151.114 115.847 168.613L56.6044 144.75C59.8192 130.963 68.3152 116.38 82.0924 101.002C95.6401 85.4908 113.551 71.3056 135.824 58.4461C164.297 42.0072 192.311 31.6665 219.865 27.4242C247.19 23.0493 276.697 25.3693 308.384 34.3842C340.072 43.3992 376.238 59.6392 416.881 83.1045L485.767 122.876C501.841 132.156 515.848 139.448 527.788 144.75C539.728 149.788 550.98 152.307 561.542 152.307C572.105 152.042 583.356 148.463 595.297 141.569L601.496 137.989L641.451 172.193L636.628 174.977C616.651 186.511 599.2 194.332 584.275 198.442C569.579 202.419 555.687 203.944 542.599 203.016C529.51 202.088 515.388 199.9 500.233 196.454C502.3 212.23 499.315 227.741 491.278 242.986C483.241 258.232 468.316 272.152 446.502 284.747ZM408.614 249.35C425.147 239.805 436.973 228.205 444.091 214.55C451.439 200.762 453.161 187.041 449.257 173.386L368.66 126.853C336.972 146.474 313.551 163.708 298.396 178.556C283.471 193.272 276.582 206.397 277.73 217.93C278.878 229.464 287.833 240.07 304.596 249.748C322.736 260.221 340.761 265.06 358.672 264.264C376.582 263.204 393.23 258.232 408.614 249.35Z" fill="#F178B6" fill-opacity="0.32"/>
<path fill-rule="evenodd" clip-rule="evenodd" d="M446.537 284.003C425.642 296.067 403.139 304.154 379.029 308.264C354.918 312.374 331.152 312.705 307.731 309.258C284.539 305.679 263.529 298.454 244.7 287.583C225.641 276.579 213.471 264.78 208.19 252.186C202.909 239.327 202.794 226.268 207.846 213.011C212.897 199.489 221.508 186.165 233.678 173.04C245.618 159.783 259.74 147.123 276.043 135.059C292.346 122.729 308.994 111.527 325.986 101.452C293.839 82.8915 266.514 74.4069 244.011 75.9977C221.508 77.5886 198.316 85.2778 174.436 99.0653C161.807 106.357 150.211 115.305 139.648 125.911C129.315 136.384 121.393 150.371 115.882 167.87L56.6399 144.007C59.8546 130.22 68.3506 115.637 82.1279 100.258C95.6756 84.7475 113.586 70.5623 135.859 57.7028C164.332 41.2639 192.346 30.9232 219.901 26.6809C247.226 22.306 276.732 24.6261 308.42 33.641C340.108 42.6559 376.273 58.8959 416.916 82.3612L485.803 122.133C501.876 131.413 515.883 138.704 527.823 144.007C539.764 149.045 551.015 151.564 561.578 151.564C572.14 151.299 583.392 147.719 595.332 140.825L601.532 137.246L641.486 171.45L636.664 174.234C616.687 185.767 599.236 193.589 584.31 197.699C569.614 201.676 555.722 203.201 542.634 202.273C529.546 201.345 515.424 199.157 500.269 195.71C502.335 211.486 499.35 226.997 491.314 242.243C483.277 257.489 468.351 271.409 446.537 284.003ZM408.65 248.607C425.182 239.061 437.008 227.461 444.126 213.806C451.474 200.019 453.196 186.298 449.293 172.643L368.696 126.11C337.008 145.731 313.586 162.965 298.431 177.813C283.506 192.529 276.617 205.653 277.765 217.187C278.914 228.721 287.869 239.327 304.631 249.004C322.771 259.477 340.797 264.316 358.707 263.521C376.618 262.46 393.265 257.489 408.65 248.607Z" fill="#F178B6" fill-opacity="0.32"/>
<path fill-rule="evenodd" clip-rule="evenodd" d="M446.573 283.26C425.677 295.324 403.174 303.41 379.064 307.52C354.954 311.63 331.188 311.961 307.766 308.514C284.575 304.935 263.564 297.71 244.735 286.839C225.677 275.835 213.507 264.037 208.226 251.442C202.944 238.583 202.829 225.524 207.881 212.267C212.933 198.745 221.544 185.421 233.714 172.297C245.654 159.04 259.776 146.379 276.079 134.315C292.382 121.986 309.029 110.783 326.021 100.708C293.874 82.1477 266.549 73.6631 244.047 75.2539C221.544 76.8448 198.352 84.534 174.471 98.3215C161.842 105.613 150.246 114.562 139.684 125.167C129.351 135.641 121.429 149.627 115.918 167.126L56.6753 143.263C59.89 129.476 68.386 114.893 82.1633 99.5146C95.711 84.0037 113.621 69.8185 135.895 56.959C164.368 40.5201 192.382 30.1795 219.936 25.9371C247.261 21.5623 276.768 23.8823 308.455 32.8972C340.143 41.9121 376.309 58.1522 416.952 81.6174L485.838 121.389C501.912 130.669 515.918 137.961 527.859 143.263C539.799 148.301 551.051 150.82 561.613 150.82C572.176 150.555 583.427 146.975 595.367 140.082L601.567 136.502L641.521 170.706L636.699 173.49C616.722 185.024 599.271 192.845 584.346 196.955C569.65 200.932 555.758 202.457 542.669 201.529C529.581 200.601 515.459 198.413 500.304 194.967C502.371 210.743 499.386 226.254 491.349 241.499C483.312 256.745 468.387 270.665 446.573 283.26ZM408.685 247.863C425.218 238.318 437.043 226.718 444.162 213.063C451.51 199.275 453.232 185.554 449.328 171.899L368.731 125.366C337.043 144.987 313.622 162.221 298.467 177.069C283.541 191.785 276.653 204.909 277.801 216.443C278.949 227.977 287.904 238.583 304.667 248.26C322.807 258.734 340.832 263.573 358.742 262.777C376.653 261.717 393.301 256.745 408.685 247.863Z" fill="#F178B6" fill-opacity="0.32"/>
<path fill-rule="evenodd" clip-rule="evenodd" d="M446.608 282.516C425.713 294.58 403.21 302.667 379.099 306.777C354.989 310.887 331.223 311.218 307.802 307.771C284.61 304.192 263.6 296.967 244.771 286.096C225.712 275.092 213.542 263.293 208.261 250.699C202.98 237.839 202.865 224.781 207.917 211.524C212.968 198.002 221.579 184.678 233.749 171.553C245.689 158.296 259.811 145.636 276.114 133.572C292.417 121.242 309.065 110.04 326.057 99.9645C293.91 81.4044 266.585 72.9198 244.082 74.5107C221.579 76.1015 198.387 83.7907 174.507 97.5782C161.877 104.87 150.282 113.818 139.719 124.424C129.386 134.897 121.464 148.884 115.953 166.383L56.7108 142.52C59.9255 128.733 68.4215 114.15 82.1988 98.7713C95.7464 83.2604 113.657 69.0752 135.93 56.2157C164.403 39.7768 192.417 29.4362 219.972 25.1939C247.297 20.819 276.803 23.139 308.491 32.1539C340.179 41.1688 376.344 57.4089 416.987 80.8741L485.873 120.646C501.947 129.926 515.954 137.217 527.894 142.52C539.835 147.558 551.086 150.077 561.649 150.077C572.211 149.812 583.463 146.232 595.403 139.338L601.603 135.759L641.557 169.963L636.735 172.747C616.758 184.28 599.307 192.102 584.381 196.212C569.685 200.189 555.793 201.714 542.705 200.786C529.616 199.858 515.495 197.67 500.34 194.223C502.406 209.999 499.421 225.51 491.384 240.756C483.348 256.002 468.422 269.922 446.608 282.516ZM408.721 247.119C425.253 237.574 437.079 225.974 444.197 212.319C451.545 198.532 453.267 184.811 449.364 171.156L368.766 124.623C337.079 144.244 313.657 161.478 298.502 176.326C283.577 191.042 276.688 204.166 277.836 215.7C278.984 227.234 287.94 237.839 304.702 247.517C322.842 257.99 340.867 262.829 358.778 262.034C376.688 260.973 393.336 256.002 408.721 247.119Z" fill="#F178B6" fill-opacity="0.32"/>
<path fill-rule="evenodd" clip-rule="evenodd" d="M446.644 281.772C425.749 293.837 403.246 301.923 379.135 306.033C355.025 310.143 331.259 310.474 307.838 307.027C284.646 303.448 263.636 296.223 244.807 285.352C225.748 274.348 213.578 262.549 208.297 249.955C203.016 237.096 202.901 224.037 207.952 210.78C213.004 197.258 221.615 183.934 233.785 170.81C245.725 157.552 259.847 144.892 276.15 132.828C292.453 120.499 309.101 109.296 326.093 99.2207C293.946 80.6606 266.621 72.176 244.118 73.7669C221.615 75.3577 198.423 83.0469 174.543 96.8344C161.913 104.126 150.317 113.075 139.755 123.68C129.422 134.153 121.5 148.14 115.989 165.639L56.7467 141.776C59.9614 127.989 68.4574 113.406 82.2347 98.0276C95.7824 82.5167 113.693 68.3314 135.966 55.472C164.439 39.033 192.453 28.6924 220.008 24.4501C247.333 20.0752 276.839 22.3952 308.527 31.4101C340.215 40.425 376.38 56.6651 417.023 80.1304L485.909 119.902C501.983 129.182 515.99 136.473 527.93 141.776C539.87 146.814 551.122 149.333 561.685 149.333C572.247 149.068 583.499 145.488 595.439 138.595L601.639 135.015L641.593 169.219L636.771 172.003C616.794 183.537 599.342 191.358 584.417 195.468C569.721 199.445 555.829 200.97 542.741 200.042C529.652 199.114 515.531 196.926 500.376 193.479C502.442 209.256 499.457 224.766 491.42 240.012C483.384 255.258 468.458 269.178 446.644 281.772ZM408.757 246.376C425.289 236.831 437.115 225.23 444.233 211.576C451.581 197.788 453.303 184.067 449.4 170.412L368.802 123.879C337.115 143.5 313.693 160.734 298.538 175.582C283.613 190.298 276.724 203.422 277.872 214.956C279.02 226.49 287.976 237.096 304.738 246.773C322.878 257.247 340.903 262.086 358.814 261.29C376.724 260.229 393.372 255.258 408.757 246.376Z" fill="#F178B6" fill-opacity="0.32"/>
<path fill-rule="evenodd" clip-rule="evenodd" d="M446.68 281.029C425.784 293.093 403.281 301.18 379.171 305.29C355.061 309.4 331.295 309.731 307.873 306.284C284.682 302.705 263.671 295.48 244.842 284.609C225.784 273.605 213.614 261.806 208.332 249.212C203.051 236.352 202.936 223.294 207.988 210.037C213.04 196.514 221.65 183.191 233.82 170.066C245.761 156.809 259.882 144.149 276.186 132.084C292.489 119.755 309.136 108.553 326.128 98.4774C293.981 79.9174 266.656 71.4327 244.153 73.0236C221.65 74.6145 198.459 82.3036 174.578 96.0911C161.949 103.383 150.353 112.331 139.79 122.937C129.457 133.41 121.535 147.397 116.024 164.896L56.7821 141.033C59.9968 127.246 68.4928 112.663 82.2701 97.2843C95.8178 81.7734 113.728 67.5882 136.002 54.7287C164.475 38.2897 192.489 27.9491 220.043 23.7068C247.368 19.3319 276.874 21.6519 308.562 30.6668C340.25 39.6817 376.415 55.9218 417.058 79.3871L485.945 119.159C502.018 128.439 516.025 135.73 527.966 141.033C539.906 146.071 551.157 148.59 561.72 148.59C572.283 148.325 583.534 144.745 595.474 137.851L601.674 134.272L641.628 168.475L636.806 171.259C616.829 182.793 599.378 190.615 584.452 194.725C569.757 198.702 555.865 200.226 542.776 199.298C529.688 198.37 515.566 196.183 500.411 192.736C502.478 208.512 499.492 224.023 491.456 239.269C483.419 254.515 468.494 268.435 446.68 281.029ZM408.792 245.632C425.325 236.087 437.15 224.487 444.269 210.832C451.616 197.045 453.339 183.324 449.435 169.669L368.838 123.136C337.15 142.757 313.729 159.991 298.574 174.839C283.648 189.554 276.76 202.679 277.908 214.213C279.056 225.747 288.011 236.352 304.773 246.03C322.914 256.503 340.939 261.342 358.849 260.547C376.76 259.486 393.407 254.515 408.792 245.632Z" fill="#F178B6" fill-opacity="0.32"/>
<path fill-rule="evenodd" clip-rule="evenodd" d="M446.715 280.285C425.819 292.349 403.316 300.436 379.206 304.546C355.096 308.656 331.33 308.987 307.909 305.54C284.717 301.961 263.707 294.736 244.878 283.865C225.819 272.861 213.649 261.062 208.368 248.468C203.087 235.609 202.972 222.55 208.023 209.293C213.075 195.771 221.686 182.447 233.856 169.323C245.796 156.065 259.918 143.405 276.221 131.341C292.524 119.011 309.172 107.809 326.164 97.7337C294.017 79.1736 266.692 70.689 244.189 72.2798C221.686 73.8707 198.494 81.5599 174.613 95.3474C161.984 102.639 150.388 111.587 139.826 122.193C129.493 132.666 121.571 146.653 116.06 164.152L56.8176 140.289C60.0323 126.502 68.5283 111.919 82.3056 96.5405C95.8533 81.0296 113.764 66.8444 136.037 53.9849C164.51 37.546 192.524 27.2053 220.079 22.963C247.403 18.5881 276.91 20.9081 308.598 29.923C340.285 38.938 376.451 55.178 417.094 78.6433L485.98 118.415C502.054 127.695 516.061 134.986 528.001 140.289C539.941 145.327 551.193 147.846 561.755 147.846C572.318 147.581 583.569 144.001 595.51 137.108L601.71 133.528L641.664 167.732L636.842 170.516C616.865 182.049 599.413 189.871 584.488 193.981C569.792 197.958 555.9 199.483 542.812 198.555C529.723 197.627 515.601 195.439 500.446 191.992C502.513 207.768 499.528 223.279 491.491 238.525C483.454 253.771 468.529 267.691 446.715 280.285ZM408.827 244.889C425.36 235.343 437.186 223.743 444.304 210.088C451.652 196.301 453.374 182.58 449.47 168.925L368.873 122.392C337.186 142.013 313.764 159.247 298.609 174.095C283.684 188.811 276.795 201.935 277.943 213.469C279.091 225.003 288.046 235.609 304.809 245.286C322.949 255.76 340.974 260.598 358.885 259.803C376.795 258.742 393.443 253.771 408.827 244.889Z" fill="#F178B6" fill-opacity="0.32"/>
<path fill-rule="evenodd" clip-rule="evenodd" d="M446.75 279.542C425.855 291.606 403.352 299.693 379.242 303.803C355.131 307.913 331.366 308.244 307.944 304.797C284.752 301.218 263.742 293.992 244.913 283.122C225.854 272.118 213.685 260.319 208.403 247.725C203.122 234.865 203.007 221.807 208.059 208.55C213.11 195.027 221.721 181.704 233.891 168.579C245.832 155.322 259.953 142.661 276.256 130.597C292.56 118.268 309.207 107.066 326.199 96.9904C294.052 78.4303 266.727 69.9457 244.224 71.5365C221.721 73.1274 198.53 80.8166 174.649 94.6041C162.02 101.896 150.424 110.844 139.861 121.45C129.528 131.923 121.606 145.909 116.095 163.409L56.853 139.546C60.0677 125.759 68.5637 111.176 82.341 95.7972C95.8887 80.2863 113.799 66.1011 136.072 53.2416C164.546 36.8027 192.559 26.462 220.114 22.2197C247.439 17.8449 276.945 20.1649 308.633 29.1798C340.321 38.1947 376.486 54.4347 417.129 77.9L486.016 117.672C502.089 126.952 516.096 134.243 528.036 139.546C539.977 144.584 551.228 147.103 561.791 147.103C572.353 146.837 583.605 143.258 595.545 136.364L601.745 132.785L641.699 166.988L636.877 169.772C616.9 181.306 599.449 189.128 584.523 193.238C569.828 197.215 555.935 198.739 542.847 197.811C529.759 196.883 515.637 194.696 500.482 191.249C502.548 207.025 499.563 222.536 491.527 237.782C483.49 253.028 468.564 266.948 446.75 279.542ZM408.863 244.145C425.396 234.6 437.221 223 444.339 209.345C451.687 195.558 453.409 181.837 449.506 168.182L368.909 121.649C337.221 141.269 313.8 158.504 298.645 173.352C283.719 188.067 276.83 201.192 277.979 212.726C279.127 224.26 288.082 234.865 304.844 244.543C322.984 255.016 341.01 259.855 358.92 259.06C376.831 257.999 393.478 253.028 408.863 244.145Z" fill="#F178B6" fill-opacity="0.32"/>
<path fill-rule="evenodd" clip-rule="evenodd" d="M446.786 278.798C425.89 290.862 403.387 298.949 379.277 303.059C355.167 307.169 331.401 307.5 307.98 304.053C284.788 300.474 263.777 293.249 244.949 282.378C225.89 271.374 213.72 259.575 208.439 246.981C203.157 234.122 203.043 221.063 208.094 207.806C213.146 194.284 221.757 180.96 233.927 167.836C245.867 154.578 259.989 141.918 276.292 129.854C292.595 117.524 309.243 106.322 326.235 96.2466C294.088 77.6865 266.763 69.2019 244.26 70.7927C221.757 72.3836 198.565 80.0728 174.684 93.8603C162.055 101.152 150.459 110.1 139.897 120.706C129.564 131.179 121.642 145.166 116.131 162.665L56.8885 138.802C60.1032 125.015 68.5992 110.432 82.3764 95.0534C95.9241 79.5425 113.835 65.3573 136.108 52.4978C164.581 36.0589 192.595 25.7183 220.149 21.476C247.474 17.1011 276.981 19.4211 308.669 28.436C340.356 37.4509 376.522 53.691 417.165 77.1562L486.051 116.928C502.125 126.208 516.132 133.499 528.072 138.802C540.012 143.84 551.264 146.359 561.826 146.359C572.389 146.094 583.64 142.514 595.581 135.62L601.78 132.041L641.735 166.245L636.913 169.029C616.935 180.562 599.484 188.384 584.559 192.494C569.863 196.471 555.971 197.996 542.883 197.068C529.794 196.14 515.672 193.952 500.517 190.505C502.584 206.281 499.599 221.792 491.562 237.038C483.525 252.284 468.6 266.204 446.786 278.798ZM408.898 243.402C425.431 233.856 437.257 222.256 444.375 208.601C451.723 194.814 453.445 181.093 449.541 167.438L368.944 120.905C337.256 140.526 313.835 157.76 298.68 172.608C283.755 187.324 276.866 200.448 278.014 211.982C279.162 223.516 288.117 234.122 304.88 243.799C323.02 254.272 341.045 259.111 358.956 258.316C376.866 257.255 393.514 252.284 408.898 243.402Z" fill="#F178B6" fill-opacity="0.32"/>
<path fill-rule="evenodd" clip-rule="evenodd" d="M446.822 278.055C425.926 290.119 403.423 298.206 379.313 302.316C355.203 306.425 331.437 306.757 308.016 303.31C284.824 299.731 263.813 292.505 244.984 281.634C225.926 270.631 213.756 258.832 208.475 246.238C203.193 233.378 203.079 220.32 208.13 207.063C213.182 193.54 221.793 180.217 233.963 167.092C245.903 153.835 260.025 141.174 276.328 129.11C292.631 116.781 309.278 105.579 326.27 95.5033C294.123 76.9432 266.799 68.4586 244.296 70.0495C221.793 71.6403 198.601 79.3295 174.72 93.117C162.091 100.408 150.495 109.357 139.933 119.963C129.6 130.436 121.678 144.422 116.167 161.922L56.9244 138.059C60.1391 124.271 68.6351 109.689 82.4124 94.3102C95.9601 78.7992 113.871 64.614 136.144 51.7545C164.617 35.3156 192.631 24.975 220.185 20.7327C247.51 16.3578 277.017 18.6778 308.704 27.6927C340.392 36.7076 376.558 52.9477 417.201 76.4129L486.087 116.185C502.161 125.465 516.167 132.756 528.108 138.059C540.048 143.097 551.3 145.616 561.862 145.616C572.425 145.35 583.676 141.771 595.617 134.877L601.816 131.298L641.771 165.501L636.948 168.285C616.971 179.819 599.52 187.641 584.595 191.751C569.899 195.728 556.007 197.252 542.918 196.324C529.83 195.396 515.708 193.209 500.553 189.762C502.62 205.538 499.635 221.049 491.598 236.295C483.561 251.541 468.636 265.461 446.822 278.055ZM408.934 242.658C425.467 233.113 437.293 221.513 444.411 207.858C451.759 194.071 453.481 180.349 449.577 166.695L368.98 120.162C337.292 139.782 313.871 157.017 298.716 171.865C283.79 186.58 276.902 199.705 278.05 211.239C279.198 222.772 288.153 233.378 304.916 243.056C323.056 253.529 341.081 258.368 358.992 257.573C376.902 256.512 393.55 251.541 408.934 242.658Z" fill="#F178B6" fill-opacity="0.32"/>
<path fill-rule="evenodd" clip-rule="evenodd" d="M446.857 277.311C425.962 289.375 403.459 297.462 379.348 301.572C355.238 305.682 331.472 306.013 308.051 302.566C284.859 298.987 263.849 291.762 245.02 280.891C225.961 269.887 213.791 258.088 208.51 245.494C203.229 232.634 203.114 219.576 208.166 206.319C213.217 192.797 221.828 179.473 233.998 166.348C245.938 153.091 260.06 140.431 276.363 128.367C292.666 116.037 309.314 104.835 326.306 94.7595C294.159 76.1994 266.834 67.7148 244.331 69.3057C221.828 70.8965 198.636 78.5857 174.756 92.3732C162.127 99.6647 150.531 108.613 139.968 119.219C129.635 129.692 121.713 143.679 116.202 161.178L56.9598 137.315C60.1745 123.528 68.6705 108.945 82.4478 93.5664C95.9955 78.0555 113.906 63.8702 136.179 51.0108C164.652 34.5718 192.666 24.2312 220.221 19.9889C247.546 15.614 277.052 17.934 308.74 26.9489C340.428 35.9638 376.593 52.2039 417.236 75.6692L486.122 115.441C502.196 124.721 516.203 132.012 528.143 137.315C540.084 142.353 551.335 144.872 561.898 144.872C572.46 144.607 583.712 141.027 595.652 134.133L601.852 130.554L641.806 164.758L636.984 167.542C617.007 179.075 599.556 186.897 584.63 191.007C569.934 194.984 556.042 196.509 542.954 195.581C529.865 194.653 515.744 192.465 500.589 189.018C502.655 204.794 499.67 220.305 491.633 235.551C483.597 250.797 468.671 264.717 446.857 277.311ZM408.97 241.915C425.502 232.369 437.328 220.769 444.446 207.114C451.794 193.327 453.516 179.606 449.613 165.951L369.016 119.418C337.328 139.039 313.906 156.273 298.751 171.121C283.826 185.837 276.937 198.961 278.085 210.495C279.233 222.029 288.189 232.634 304.951 242.312C323.091 252.785 341.116 257.624 359.027 256.829C376.937 255.768 393.585 250.797 408.97 241.915Z" fill="#F178B6" fill-opacity="0.32"/>
<path fill-rule="evenodd" clip-rule="evenodd" d="M446.893 276.568C425.997 288.632 403.494 296.719 379.384 300.829C355.274 304.938 331.508 305.27 308.086 301.823C284.895 298.243 263.884 291.018 245.055 280.147C225.997 269.144 213.827 257.345 208.546 244.751C203.264 231.891 203.149 218.833 208.201 205.576C213.253 192.053 221.864 178.73 234.033 165.605C245.974 152.348 260.096 139.687 276.399 127.623C292.702 115.294 309.349 104.092 326.341 94.0162C294.194 75.4562 266.869 66.9715 244.366 68.5624C221.864 70.1533 198.672 77.8424 174.791 91.6299C162.162 98.9214 150.566 107.87 140.003 118.476C129.67 128.949 121.749 142.935 116.238 160.435L56.9953 136.572C60.21 122.784 68.706 108.201 82.4833 92.8231C96.0309 77.3122 113.941 63.127 136.215 50.2675C164.688 33.8285 192.702 23.4879 220.256 19.2456C247.581 14.8707 277.088 17.1907 308.775 26.2056C340.463 35.2205 376.628 51.4606 417.272 74.9259L486.158 114.697C502.231 123.978 516.238 131.269 528.179 136.572C540.119 141.61 551.37 144.128 561.933 144.128C572.496 143.863 583.747 140.284 595.687 133.39L601.887 129.811L641.841 164.014L637.019 166.798C617.042 178.332 599.591 186.154 584.666 190.264C569.97 194.241 556.078 195.765 542.989 194.837C529.901 193.909 515.779 191.722 500.624 188.275C502.691 204.051 499.706 219.562 491.669 234.808C483.632 250.054 468.707 263.974 446.893 276.568ZM409.005 241.171C425.538 231.626 437.363 220.026 444.482 206.371C451.83 192.584 453.552 178.862 449.648 165.207L369.051 118.675C337.363 138.295 313.942 155.53 298.787 170.378C283.861 185.093 276.973 198.218 278.121 209.752C279.269 221.285 288.224 231.891 304.987 241.569C323.127 252.042 341.152 256.881 359.062 256.086C376.973 255.025 393.62 250.054 409.005 241.171Z" fill="#F178B6" fill-opacity="0.32"/>
<path fill-rule="evenodd" clip-rule="evenodd" d="M446.928 275.824C426.033 287.888 403.53 295.975 379.419 300.085C355.309 304.195 331.543 304.526 308.122 301.079C284.93 297.5 263.92 290.275 245.091 279.404C226.032 268.4 213.862 256.601 208.581 244.007C203.3 231.147 203.185 218.089 208.237 204.832C213.288 191.309 221.899 177.986 234.069 164.861C246.009 151.604 260.131 138.944 276.434 126.879C292.737 114.55 309.385 103.348 326.377 93.2725C294.23 74.7124 266.905 66.2278 244.402 67.8186C221.899 69.4095 198.707 77.0987 174.827 90.8862C162.197 98.1776 150.602 107.126 140.039 117.732C129.706 128.205 121.784 142.192 116.273 159.691L57.0307 135.828C60.2454 122.041 68.7414 107.458 82.5187 92.0793C96.0664 76.5684 113.977 62.3832 136.25 49.5237C164.723 33.0848 192.737 22.7441 220.292 18.5018C247.617 14.1269 277.123 16.447 308.811 25.4618C340.499 34.4768 376.664 50.7168 417.307 74.1821L486.193 113.954C502.267 123.234 516.274 130.525 528.214 135.828C540.154 140.866 551.406 143.385 561.969 143.385C572.531 143.12 583.783 139.54 595.723 132.646L601.923 129.067L641.877 163.271L637.055 166.055C617.078 177.588 599.626 185.41 584.701 189.52C570.005 193.497 556.113 195.022 543.025 194.094C529.936 193.166 515.815 190.978 500.66 187.531C502.726 203.307 499.741 218.818 491.704 234.064C483.668 249.31 468.742 263.23 446.928 275.824ZM409.041 240.427C425.573 230.882 437.399 219.282 444.517 205.627C451.865 191.84 453.587 178.119 449.684 164.464L369.086 117.931C337.399 137.552 313.977 154.786 298.822 169.634C283.897 184.349 277.008 197.474 278.156 209.008C279.304 220.542 288.26 231.147 305.022 240.825C323.162 251.298 341.187 256.137 359.098 255.342C377.008 254.281 393.656 249.31 409.041 240.427Z" fill="#F178B6" fill-opacity="0.32"/>
<path fill-rule="evenodd" clip-rule="evenodd" d="M446.964 275.081C426.068 287.145 403.565 295.232 379.455 299.342C355.345 303.451 331.579 303.783 308.157 300.336C284.966 296.756 263.955 289.531 245.126 278.66C226.068 267.657 213.898 255.858 208.616 243.264C203.335 230.404 203.22 217.346 208.272 204.089C213.324 190.566 221.934 177.243 234.104 164.118C246.045 150.861 260.166 138.2 276.47 126.136C292.773 113.807 309.42 102.605 326.412 92.5292C294.265 73.9691 266.94 65.4845 244.437 67.0753C221.934 68.6662 198.743 76.3554 174.862 90.1429C162.233 97.4343 150.637 106.383 140.074 116.989C129.741 127.462 121.819 141.448 116.309 158.948L57.0661 135.085C60.2809 121.297 68.7769 106.714 82.5541 91.336C96.1018 75.8251 114.012 61.6399 136.286 48.7804C164.759 32.3415 192.773 22.0008 220.327 17.7585C247.652 13.3837 277.158 15.7037 308.846 24.7186C340.534 33.7335 376.699 49.9735 417.342 73.4388L486.229 113.21C502.302 122.49 516.309 129.782 528.25 135.085C540.19 140.123 551.441 142.641 562.004 142.641C572.567 142.376 583.818 138.797 595.758 131.903L601.958 128.324L641.912 162.527L637.09 165.311C617.113 176.845 599.662 184.667 584.736 188.776C570.041 192.754 556.149 194.278 543.06 193.35C529.972 192.422 515.85 190.235 500.695 186.788C502.762 202.564 499.777 218.075 491.74 233.321C483.703 248.566 468.778 262.487 446.964 275.081ZM409.076 239.684C425.609 230.139 437.434 218.539 444.553 204.884C451.9 191.096 453.623 177.375 449.719 163.72L369.122 117.188C337.434 136.808 314.013 154.043 298.858 168.891C283.932 183.606 277.044 196.731 278.192 208.265C279.34 219.798 288.295 230.404 305.057 240.082C323.198 250.555 341.223 255.394 359.133 254.599C377.044 253.538 393.691 248.566 409.076 239.684Z" fill="#F178B6" fill-opacity="0.32"/>
<path fill-rule="evenodd" clip-rule="evenodd" d="M446.999 274.337C426.104 286.401 403.601 294.488 379.491 298.598C355.38 302.708 331.615 303.039 308.193 299.592C285.001 296.013 263.991 288.787 245.162 277.917C226.104 266.913 213.934 255.114 208.652 242.52C203.371 229.66 203.256 216.602 208.308 203.345C213.36 189.822 221.97 176.499 234.14 163.374C246.081 150.117 260.202 137.456 276.505 125.392C292.809 113.063 309.456 101.861 326.448 91.7854C294.301 73.2253 266.976 64.7407 244.473 66.3315C221.97 67.9224 198.779 75.6116 174.898 89.3991C162.269 96.6906 150.673 105.639 140.11 116.245C129.777 126.718 121.855 140.704 116.344 158.204L57.1021 134.341C60.3168 120.554 68.8128 105.971 82.5901 90.5922C96.1378 75.0813 114.048 60.8961 136.322 48.0366C164.795 31.5977 192.808 21.2571 220.363 17.0148C247.688 12.6399 277.194 14.9599 308.882 23.9748C340.57 32.9897 376.735 49.2298 417.378 72.695L486.265 112.467C502.338 121.747 516.345 129.038 528.286 134.341C540.226 139.379 551.477 141.898 562.04 141.898C572.602 141.632 583.854 138.053 595.794 131.159L601.994 127.58L641.948 161.783L637.126 164.567C617.149 176.101 599.698 183.923 584.772 188.033C570.077 192.01 556.185 193.534 543.096 192.606C530.008 191.678 515.886 189.491 500.731 186.044C502.798 201.82 499.812 217.331 491.776 232.577C483.739 247.823 468.814 261.743 446.999 274.337ZM409.112 238.94C425.645 229.395 437.47 217.795 444.588 204.14C451.936 190.353 453.659 176.632 449.755 162.977L369.158 116.444C337.47 136.064 314.049 153.299 298.894 168.147C283.968 182.862 277.08 195.987 278.228 207.521C279.376 219.055 288.331 229.66 305.093 239.338C323.233 249.811 341.259 254.65 359.169 253.855C377.08 252.794 393.727 247.823 409.112 238.94Z" fill="#F178B6" fill-opacity="0.32"/>
<path fill-rule="evenodd" clip-rule="evenodd" d="M447.035 273.594C426.139 285.658 403.636 293.745 379.526 297.855C355.416 301.964 331.65 302.296 308.229 298.849C285.037 295.269 264.027 288.044 245.198 277.173C226.139 266.17 213.969 254.371 208.688 241.777C203.406 228.917 203.292 215.859 208.343 202.601C213.395 189.079 222.006 175.756 234.176 162.631C246.116 149.374 260.238 136.713 276.541 124.649C292.844 112.32 309.492 101.118 326.484 91.0421C294.337 72.482 267.012 63.9974 244.509 65.5883C222.006 67.1791 198.814 74.8683 174.933 88.6558C162.304 95.9473 150.708 104.896 140.146 115.502C129.813 125.975 121.891 139.961 116.38 157.461L57.1375 133.598C60.3522 119.81 68.8482 105.227 82.6255 89.849C96.1732 74.338 114.084 60.1528 136.357 47.2933C164.83 30.8544 192.844 20.5138 220.398 16.2715C247.723 11.8966 277.23 14.2166 308.918 23.2315C340.605 32.2464 376.771 48.4865 417.414 71.9517L486.3 111.723C502.374 121.003 516.381 128.295 528.321 133.598C540.261 138.635 551.513 141.154 562.075 141.154C572.638 140.889 583.889 137.31 595.83 130.416L602.029 126.837L641.984 161.04L637.162 163.824C617.185 175.358 599.733 183.18 584.808 187.289C570.112 191.267 556.22 192.791 543.132 191.863C530.043 190.935 515.921 188.748 500.766 185.301C502.833 201.077 499.848 216.588 491.811 231.834C483.774 247.079 468.849 260.999 447.035 273.594ZM409.147 238.197C425.68 228.652 437.506 217.052 444.624 203.397C451.972 189.609 453.694 175.888 449.79 162.233L369.193 115.701C337.505 135.321 314.084 152.556 298.929 167.404C284.004 182.119 277.115 195.244 278.263 206.778C279.411 218.311 288.366 228.917 305.129 238.595C323.269 249.068 341.294 253.907 359.205 253.111C377.115 252.051 393.763 247.079 409.147 238.197Z" fill="#F178B6" fill-opacity="0.32"/>
<path fill-rule="evenodd" clip-rule="evenodd" d="M447.07 272.85C426.175 284.914 403.672 293.001 379.562 297.111C355.451 301.22 331.686 301.552 308.264 298.105C285.072 294.526 264.062 287.3 245.233 276.43C226.174 265.426 214.004 253.627 208.723 241.033C203.442 228.173 203.327 215.115 208.379 201.858C213.43 188.335 222.041 175.012 234.211 161.887C246.152 148.63 260.273 135.969 276.576 123.905C292.879 111.576 309.527 100.374 326.519 90.2983C294.372 71.7383 267.047 63.2536 244.544 64.8445C222.041 66.4353 198.849 74.1245 174.969 87.912C162.34 95.2035 150.744 104.152 140.181 114.758C129.848 125.231 121.926 139.217 116.415 156.717L57.173 132.854C60.3877 119.066 68.8837 104.484 82.6609 89.1052C96.2086 73.5943 114.119 59.409 136.392 46.5496C164.865 30.1106 192.879 19.77 220.434 15.5277C247.759 11.1528 277.265 13.4728 308.953 22.4877C340.641 31.5026 376.806 47.7427 417.449 71.208L486.336 110.98C502.409 120.26 516.416 127.551 528.356 132.854C540.297 137.892 551.548 140.411 562.111 140.411C572.673 140.145 583.925 136.566 595.865 129.672L602.065 126.093L642.019 160.296L637.197 163.08C617.22 174.614 599.769 182.436 584.843 186.546C570.148 190.523 556.255 192.047 543.167 191.119C530.079 190.191 515.957 188.004 500.802 184.557C502.868 200.333 499.883 215.844 491.847 231.09C483.81 246.336 468.884 260.256 447.07 272.85ZM409.183 237.453C425.716 227.908 437.541 216.308 444.659 202.653C452.007 188.866 453.729 175.144 449.826 161.49L369.229 114.957C337.541 134.577 314.119 151.812 298.964 166.66C284.039 181.375 277.15 194.5 278.299 206.034C279.447 217.568 288.402 228.173 305.164 237.851C323.304 248.324 341.33 253.163 359.24 252.368C377.151 251.307 393.798 246.336 409.183 237.453Z" fill="#F178B6" fill-opacity="0.32"/>
<path fill-rule="evenodd" clip-rule="evenodd" d="M447.106 272.107C426.21 284.171 403.707 292.258 379.597 296.367C355.487 300.477 331.721 300.809 308.3 297.362C285.108 293.782 264.097 286.557 245.268 275.686C226.21 264.683 214.04 252.884 208.759 240.289C203.477 227.43 203.363 214.372 208.414 201.114C213.466 187.592 222.077 174.269 234.247 161.144C246.187 147.887 260.309 135.226 276.612 123.162C292.915 110.833 309.562 99.6305 326.554 89.555C294.407 70.995 267.083 62.5103 244.58 64.1012C222.077 65.6921 198.885 73.3812 175.004 87.1687C162.375 94.4602 150.779 103.409 140.217 114.015C129.884 124.488 121.962 138.474 116.451 155.974L57.2084 132.111C60.4231 118.323 68.9191 103.74 82.6964 88.3619C96.2441 72.851 114.155 58.6658 136.428 45.8063C164.901 29.3673 192.915 19.0267 220.469 14.7844C247.794 10.4095 277.301 12.7295 308.988 21.7444C340.676 30.7593 376.842 46.9994 417.485 70.4647L486.371 110.236C502.445 119.516 516.452 126.808 528.392 132.111C540.332 137.148 551.584 139.667 562.146 139.667C572.709 139.402 583.96 135.823 595.901 128.929L602.1 125.349L642.055 159.553L637.232 162.337C617.255 173.871 599.804 181.693 584.879 185.802C570.183 189.78 556.291 191.304 543.202 190.376C530.114 189.448 515.992 187.261 500.837 183.814C502.904 199.59 499.919 215.101 491.882 230.347C483.845 245.592 468.92 259.512 447.106 272.107ZM409.218 236.71C425.751 227.165 437.577 215.565 444.695 201.91C452.043 188.122 453.765 174.401 449.861 160.746L369.264 114.213C337.576 133.834 314.155 151.068 299 165.917C284.074 180.632 277.186 193.757 278.334 205.29C279.482 216.824 288.437 227.43 305.2 237.108C323.34 247.581 341.365 252.42 359.276 251.624C377.186 250.564 393.834 245.592 409.218 236.71Z" fill="#F178B6" fill-opacity="0.32"/>
<path fill-rule="evenodd" clip-rule="evenodd" d="M447.142 271.363C426.246 283.428 403.743 291.514 379.633 295.624C355.523 299.734 331.757 300.065 308.335 296.618C285.144 293.039 264.133 285.814 245.304 274.943C226.246 263.939 214.076 252.141 208.795 239.546C203.513 226.687 203.398 213.628 208.45 200.371C213.502 186.849 222.113 173.525 234.283 160.401C246.223 147.143 260.345 134.483 276.648 122.419C292.951 110.09 309.598 98.8872 326.59 88.8118C294.443 70.2517 267.118 61.7671 244.616 63.3579C222.113 64.9488 198.921 72.638 175.04 86.4255C162.411 93.7169 150.815 102.666 140.253 113.271C129.92 123.744 121.998 137.731 116.487 155.23L57.2443 131.367C60.459 117.58 68.955 102.997 82.7323 87.6186C96.28 72.1077 114.19 57.9225 136.464 45.063C164.937 28.624 192.951 18.2834 220.505 14.0411C247.83 9.66623 277.337 11.9862 309.024 21.0011C340.712 30.016 376.878 46.2561 417.521 69.7214L486.407 109.493C502.48 118.773 516.487 126.064 528.428 131.367C540.368 136.405 551.62 138.924 562.182 138.924C572.745 138.659 583.996 135.079 595.937 128.186L602.136 124.606L642.09 158.81L637.268 161.594C617.291 173.128 599.84 180.949 584.915 185.059C570.219 189.036 556.327 190.561 543.238 189.633C530.15 188.705 516.028 186.517 500.873 183.07C502.94 198.847 499.955 214.357 491.918 229.603C483.881 244.849 468.956 258.769 447.142 271.363ZM409.254 235.967C425.787 226.422 437.612 214.821 444.731 201.167C452.079 187.379 453.801 173.658 449.897 160.003L369.3 113.47C337.612 133.091 314.191 150.325 299.036 165.173C284.11 179.889 277.222 193.013 278.37 204.547C279.518 216.081 288.473 226.687 305.236 236.364C323.376 246.838 341.401 251.677 359.311 250.881C377.222 249.821 393.87 244.849 409.254 235.967Z" fill="#F178B6" fill-opacity="0.32"/>
<path fill-rule="evenodd" clip-rule="evenodd" d="M447.177 270.62C426.282 282.684 403.779 290.771 379.668 294.88C355.558 298.99 331.792 299.322 308.371 295.875C285.179 292.295 264.169 285.07 245.34 274.199C226.281 263.196 214.111 251.397 208.83 238.802C203.549 225.943 203.434 212.885 208.486 199.627C213.537 186.105 222.148 172.782 234.318 159.657C246.258 146.4 260.38 133.739 276.683 121.675C292.986 109.346 309.634 98.1435 326.626 88.068C294.479 69.5079 267.154 61.0233 244.651 62.6141C222.148 64.205 198.956 71.8942 175.076 85.6817C162.446 92.9731 150.851 101.922 140.288 112.528C129.955 123.001 122.033 136.987 116.522 154.487L57.2798 130.624C60.4945 116.836 68.9905 102.253 82.7678 86.8748C96.3154 71.3639 114.226 57.1787 136.499 44.3192C164.972 27.8803 192.986 17.5396 220.541 13.2973C247.866 8.92245 277.372 11.2425 309.06 20.2574C340.748 29.2723 376.913 45.5123 417.556 68.9776L486.442 108.749C502.516 118.029 516.523 125.321 528.463 130.624C540.404 135.661 551.655 138.18 562.218 138.18C572.78 137.915 584.032 134.336 595.972 127.442L602.172 123.862L642.126 158.066L637.304 160.85C617.327 172.384 599.875 180.206 584.95 184.315C570.254 188.292 556.362 189.817 543.274 188.889C530.185 187.961 516.064 185.774 500.909 182.327C502.975 198.103 499.99 213.614 491.953 228.859C483.917 244.105 468.991 258.025 447.177 270.62ZM409.29 235.223C425.822 225.678 437.648 214.078 444.766 200.423C452.114 186.635 453.836 172.914 449.933 159.259L369.335 112.726C337.648 132.347 314.226 149.581 299.071 164.429C284.146 179.145 277.257 192.27 278.405 203.803C279.553 215.337 288.509 225.943 305.271 235.621C323.411 246.094 341.436 250.933 359.347 250.137C377.257 249.077 393.905 244.105 409.29 235.223Z" fill="#F178B6" fill-opacity="0.32"/>
<path fill-rule="evenodd" clip-rule="evenodd" d="M447.213 269.876C426.317 281.94 403.814 290.027 379.704 294.137C355.594 298.247 331.828 298.578 308.406 295.131C285.215 291.552 264.204 284.327 245.375 273.456C226.317 262.452 214.147 250.653 208.865 238.059C203.584 225.2 203.469 212.141 208.521 198.884C213.573 185.362 222.183 172.038 234.353 158.914C246.294 145.656 260.415 132.996 276.719 120.932C293.022 108.602 309.669 97.4002 326.661 87.3247C294.514 68.7646 267.189 60.28 244.686 61.8708C222.184 63.4617 198.992 71.1509 175.111 84.9384C162.482 92.2299 150.886 101.178 140.323 111.784C129.99 122.257 122.068 136.244 116.558 153.743L57.3152 129.88C60.5299 116.093 69.0259 101.51 82.8032 86.1315C96.3509 70.6206 114.261 56.4354 136.535 43.5759C165.008 27.137 193.022 16.7964 220.576 12.554C247.901 8.17916 277.407 10.4992 309.095 19.5141C340.783 28.529 376.948 44.7691 417.591 68.2343L486.478 108.006C502.551 117.286 516.558 124.577 528.499 129.88C540.439 134.918 551.69 137.437 562.253 137.437C572.816 137.172 584.067 133.592 596.007 126.699L602.207 123.119L642.161 157.323L637.339 160.107C617.362 171.641 599.911 179.462 584.986 183.572C570.29 187.549 556.398 189.074 543.309 188.146C530.221 187.218 516.099 185.03 500.944 181.583C503.011 197.359 500.026 212.87 491.989 228.116C483.952 243.362 469.027 257.282 447.213 269.876ZM409.325 234.48C425.858 224.934 437.683 213.334 444.802 199.68C452.149 185.892 453.872 172.171 449.968 158.516L369.371 111.983C337.683 131.604 314.262 148.838 299.107 163.686C284.181 178.402 277.293 191.526 278.441 203.06C279.589 214.594 288.544 225.2 305.306 234.877C323.447 245.351 341.472 250.189 359.382 249.394C377.293 248.333 393.94 243.362 409.325 234.48Z" fill="#F178B6" fill-opacity="0.32"/>
<path fill-rule="evenodd" clip-rule="evenodd" d="M447.248 269.133C426.352 281.197 403.85 289.284 379.739 293.393C355.629 297.503 331.863 297.834 308.442 294.388C285.25 290.808 264.24 283.583 245.411 272.712C226.352 261.709 214.182 249.91 208.901 237.315C203.62 224.456 203.505 211.397 208.556 198.14C213.608 184.618 222.219 171.294 234.389 158.17C246.329 144.913 260.451 132.252 276.754 120.188C293.057 107.859 309.705 96.6564 326.697 86.5809C294.55 68.0208 267.225 59.5362 244.722 61.1271C222.219 62.7179 199.027 70.4071 175.147 84.1946C162.517 91.4861 150.921 100.435 140.359 111.04C130.026 121.514 122.104 135.5 116.593 153L57.3506 129.137C60.5654 115.349 69.0614 100.766 82.8386 85.3877C96.3863 69.8768 114.297 55.6916 136.57 42.8321C165.043 26.3932 193.057 16.0526 220.612 11.8103C247.937 7.43539 277.443 9.7554 309.131 18.7703C340.818 27.7852 376.984 44.0253 417.627 67.4905L486.513 107.262C502.587 116.542 516.594 123.834 528.534 129.137C540.474 134.174 551.726 136.693 562.288 136.693C572.851 136.428 584.102 132.849 596.043 125.955L602.243 122.375L642.197 156.579L637.375 159.363C617.398 170.897 599.946 178.718 585.021 182.828C570.325 186.805 556.433 188.33 543.345 187.402C530.256 186.474 516.135 184.287 500.98 180.84C503.046 196.616 500.061 212.127 492.024 227.372C483.987 242.618 469.062 256.538 447.248 269.133ZM409.36 233.736C425.893 224.191 437.719 212.591 444.837 198.936C452.185 185.148 453.907 171.427 450.004 157.772L369.406 111.239C337.719 130.86 314.297 148.094 299.142 162.942C284.217 177.658 277.328 190.783 278.476 202.316C279.624 213.85 288.58 224.456 305.342 234.134C323.482 244.607 341.507 249.446 359.418 248.65C377.328 247.59 393.976 242.618 409.36 233.736Z" fill="#F178B6" fill-opacity="0.32"/>
<path fill-rule="evenodd" clip-rule="evenodd" d="M447.283 268.389C426.388 280.453 403.885 288.54 379.775 292.65C355.664 296.76 331.899 297.091 308.477 293.644C285.285 290.065 264.275 282.84 245.446 271.969C226.388 260.965 214.218 249.166 208.936 236.572C203.655 223.713 203.54 210.654 208.592 197.397C213.644 183.875 222.254 170.551 234.424 157.427C246.365 144.169 260.486 131.509 276.789 119.445C293.093 107.115 309.74 95.9131 326.732 85.8376C294.585 67.2775 267.26 58.7929 244.757 60.3838C222.254 61.9746 199.063 69.6638 175.182 83.4513C162.553 90.7428 150.957 99.6914 140.394 110.297C130.061 120.77 122.139 134.757 116.628 152.256L57.3861 128.393C60.6008 114.606 69.0968 100.023 82.8741 84.6445C96.4218 69.1335 114.332 54.9483 136.606 42.0888C165.079 25.6499 193.092 15.3093 220.647 11.067C247.972 6.6921 277.478 9.01211 309.166 18.027C340.854 27.0419 377.019 43.282 417.662 66.7472L486.549 106.519C502.622 115.799 516.629 123.09 528.57 128.393C540.51 133.431 551.761 135.95 562.324 135.95C572.886 135.685 584.138 132.105 596.078 125.212L602.278 121.632L642.232 155.836L637.41 158.62C617.433 170.153 599.982 177.975 585.056 182.085C570.361 186.062 556.469 187.587 543.38 186.659C530.292 185.731 516.17 183.543 501.015 180.096C503.082 195.872 500.096 211.383 492.06 226.629C484.023 241.875 469.098 255.795 447.283 268.389ZM409.396 232.993C425.929 223.447 437.754 211.847 444.872 198.192C452.22 184.405 453.943 170.684 450.039 157.029L369.442 110.496C337.754 130.117 314.333 147.351 299.178 162.199C284.252 176.915 277.364 190.039 278.512 201.573C279.66 213.107 288.615 223.713 305.377 233.39C323.517 243.864 341.543 248.702 359.453 247.907C377.364 246.846 394.011 241.875 409.396 232.993Z" fill="#F178B6" fill-opacity="0.32"/>
<path fill-rule="evenodd" clip-rule="evenodd" d="M447.319 267.646C426.424 279.71 403.921 287.797 379.811 291.906C355.7 296.016 331.935 296.347 308.513 292.901C285.321 289.321 264.311 282.096 245.482 271.225C226.423 260.222 214.254 248.423 208.972 235.828C203.691 222.969 203.576 209.91 208.628 196.653C213.679 183.131 222.29 169.807 234.46 156.683C246.401 143.426 260.522 130.765 276.825 118.701C293.129 106.372 309.776 95.1693 326.768 85.0938C294.621 66.5338 267.296 58.0491 244.793 59.64C222.29 61.2309 199.099 68.9201 175.218 82.7076C162.589 89.999 150.993 98.9476 140.43 109.553C130.097 120.027 122.175 134.013 116.664 151.512L57.422 127.649C60.6367 113.862 69.1327 99.2791 82.91 83.9007C96.4577 68.3898 114.368 54.2046 136.641 41.3451C165.115 24.9061 193.128 14.5655 220.683 10.3232C248.008 5.94832 277.514 8.26833 309.202 17.2832C340.89 26.2981 377.055 42.5382 417.698 66.0035L486.585 105.775C502.658 115.055 516.665 122.347 528.605 127.649C540.546 132.687 551.797 135.206 562.36 135.206C572.922 134.941 584.174 131.361 596.114 124.468L602.314 120.888L642.268 155.092L637.446 157.876C617.469 169.41 600.018 177.231 585.092 181.341C570.397 185.318 556.504 186.843 543.416 185.915C530.328 184.987 516.206 182.799 501.051 179.353C503.117 195.129 500.132 210.64 492.096 225.885C484.059 241.131 469.133 255.051 447.319 267.646ZM409.432 232.249C425.965 222.704 437.79 211.104 444.908 197.449C452.256 183.661 453.978 169.94 450.075 156.285L369.478 109.752C337.79 129.373 314.369 146.607 299.214 161.455C284.288 176.171 277.399 189.295 278.548 200.829C279.696 212.363 288.651 222.969 305.413 232.647C323.553 243.12 341.579 247.959 359.489 247.163C377.4 246.103 394.047 241.131 409.432 232.249Z" fill="#F178B6" fill-opacity="0.32"/>
<path fill-rule="evenodd" clip-rule="evenodd" d="M447.355 266.902C426.459 278.966 403.956 287.053 379.846 291.163C355.736 295.273 331.97 295.604 308.549 292.157C285.357 288.578 264.346 281.353 245.518 270.482C226.459 259.478 214.289 247.679 209.008 235.085C203.726 222.225 203.612 209.167 208.663 195.91C213.715 182.388 222.326 169.064 234.496 155.939C246.436 142.682 260.558 130.022 276.861 117.958C293.164 105.628 309.812 94.426 326.804 84.3506C294.657 65.7905 267.332 57.3059 244.829 58.8967C222.326 60.4876 199.134 68.1768 175.253 81.9643C162.624 89.2557 151.028 98.2043 140.466 108.81C130.133 119.283 122.211 133.27 116.7 150.769L57.4575 126.906C60.6722 113.119 69.1682 98.5358 82.9454 83.1574C96.4931 67.6465 114.404 53.4613 136.677 40.6018C165.15 24.1628 193.164 13.8222 220.718 9.57991C248.043 5.20503 277.55 7.52504 309.238 16.5399C340.925 25.5548 377.091 41.7949 417.734 65.2602L486.62 105.032C502.694 114.312 516.701 121.603 528.641 126.906C540.581 131.944 551.833 134.463 562.395 134.463C572.958 134.198 584.209 130.618 596.15 123.724L602.349 120.145L642.304 154.349L637.482 157.133C617.504 168.666 600.053 176.488 585.128 180.598C570.432 184.575 556.54 186.1 543.452 185.172C530.363 184.244 516.241 182.056 501.086 178.609C503.153 194.385 500.168 209.896 492.131 225.142C484.094 240.388 469.169 254.308 447.355 266.902ZM409.467 231.506C426 221.96 437.826 210.36 444.944 196.705C452.292 182.918 454.014 169.197 450.11 155.542L369.513 109.009C337.825 128.63 314.404 145.864 299.249 160.712C284.324 175.428 277.435 188.552 278.583 200.086C279.731 211.62 288.686 222.225 305.449 231.903C323.589 242.376 341.614 247.215 359.525 246.42C377.435 245.359 394.083 240.388 409.467 231.506Z" fill="#F178B6" fill-opacity="0.32"/>
<path fill-rule="evenodd" clip-rule="evenodd" d="M447.39 266.159C426.495 278.223 403.992 286.309 379.882 290.419C355.771 294.529 332.005 294.86 308.584 291.413C285.392 287.834 264.382 280.609 245.553 269.738C226.494 258.734 214.324 246.936 209.043 234.341C203.762 221.482 203.647 208.423 208.699 195.166C213.75 181.644 222.361 168.32 234.531 155.196C246.471 141.938 260.593 129.278 276.896 117.214C293.199 104.885 309.847 93.6823 326.839 83.6068C294.692 65.0467 267.367 56.5621 244.864 58.1529C222.361 59.7438 199.169 67.433 175.289 81.2205C162.66 88.5119 151.064 97.4606 140.501 108.066C130.168 118.54 122.246 132.526 116.735 150.025L57.4929 126.162C60.7076 112.375 69.2036 97.792 82.9809 82.4136C96.5286 66.9027 114.439 52.7175 136.712 39.858C165.185 23.4191 193.199 13.0784 220.754 8.83613C248.079 4.46126 277.585 6.78126 309.273 15.7962C340.961 24.8111 377.126 41.0511 417.769 64.5164L486.656 104.288C502.729 113.568 516.736 120.86 528.676 126.162C540.617 131.2 551.868 133.719 562.431 133.719C572.993 133.454 584.245 129.874 596.185 122.981L602.385 119.401L642.339 153.605L637.517 156.389C617.54 167.923 600.089 175.744 585.163 179.854C570.467 183.831 556.575 185.356 543.487 184.428C530.399 183.5 516.277 181.312 501.122 177.866C503.188 193.642 500.203 209.153 492.167 224.398C484.13 239.644 469.204 253.564 447.39 266.159ZM409.503 230.762C426.035 221.217 437.861 209.617 444.979 195.962C452.327 182.174 454.049 168.453 450.146 154.798L369.549 108.265C337.861 127.886 314.439 145.12 299.284 159.968C284.359 174.684 277.47 187.808 278.618 199.342C279.767 210.876 288.722 221.482 305.484 231.159C323.624 241.633 341.65 246.472 359.56 245.676C377.471 244.616 394.118 239.644 409.503 230.762Z" fill="#F178B6" fill-opacity="0.32"/>
<path fill-rule="evenodd" clip-rule="evenodd" d="M447.426 265.415C426.53 277.479 404.027 285.566 379.917 289.676C355.807 293.786 332.041 294.117 308.62 290.67C285.428 287.091 264.417 279.866 245.588 268.995C226.53 257.991 214.36 246.192 209.079 233.598C203.797 220.738 203.682 207.68 208.734 194.423C213.786 180.901 222.397 167.577 234.567 154.452C246.507 141.195 260.629 128.535 276.932 116.47C293.235 104.141 309.882 92.939 326.874 82.8635C294.727 64.3034 267.402 55.8188 244.9 57.4096C222.397 59.0005 199.205 66.6897 175.324 80.4772C162.695 87.7687 151.099 96.7173 140.537 107.323C130.204 117.796 122.282 131.783 116.771 149.282L57.5283 125.419C60.743 111.632 69.239 97.0487 83.0163 81.6703C96.564 66.1594 114.475 51.9742 136.748 39.1147C165.221 22.6758 193.235 12.3352 220.789 8.09284C248.114 3.71796 277.621 6.03797 309.308 15.0529C340.996 24.0678 377.162 40.3079 417.805 63.7731L486.691 103.545C502.765 112.825 516.771 120.116 528.712 125.419C540.652 130.457 551.904 132.976 562.466 132.976C573.029 132.711 584.28 129.131 596.221 122.237L602.42 118.658L642.375 152.862L637.552 155.646C617.575 167.179 600.124 175.001 585.199 179.111C570.503 183.088 556.611 184.613 543.522 183.685C530.434 182.757 516.312 180.569 501.157 177.122C503.224 192.898 500.239 208.409 492.202 223.655C484.165 238.901 469.24 252.821 447.426 265.415ZM409.538 230.018C426.071 220.473 437.896 208.873 445.015 195.218C452.363 181.431 454.085 167.71 450.181 154.055L369.584 107.522C337.896 127.143 314.475 144.377 299.32 159.225C284.394 173.94 277.506 187.065 278.654 198.599C279.802 210.133 288.757 220.738 305.52 230.416C323.66 240.889 341.685 245.728 359.595 244.933C377.506 243.872 394.154 238.901 409.538 230.018Z" fill="#F178B6" fill-opacity="0.32"/>
<path fill-rule="evenodd" clip-rule="evenodd" d="M447.461 264.671C426.566 276.736 404.063 284.822 379.952 288.932C355.842 293.042 332.076 293.373 308.655 289.926C285.463 286.347 264.453 279.122 245.624 268.251C226.565 257.247 214.395 245.449 209.114 232.854C203.833 219.995 203.718 206.936 208.77 193.679C213.821 180.157 222.432 166.833 234.602 153.709C246.542 140.451 260.664 127.791 276.967 115.727C293.27 103.398 309.918 92.1952 326.91 82.1197C294.763 63.5596 267.438 55.075 244.935 56.6659C222.432 58.2567 199.24 65.9459 175.36 79.7334C162.73 87.0249 151.135 95.9735 140.572 106.579C130.239 117.052 122.317 131.039 116.806 148.538L57.5638 124.675C60.7785 110.888 69.2745 96.3049 83.0518 80.9266C96.5995 65.4156 114.51 51.2304 136.783 38.3709C165.256 21.932 193.27 11.5914 220.825 7.34907C248.15 2.97419 277.656 5.2942 309.344 14.3091C341.032 23.324 377.197 39.5641 417.84 63.0293L486.726 102.801C502.8 112.081 516.807 119.372 528.747 124.675C540.688 129.713 551.939 132.232 562.502 132.232C573.064 131.967 584.316 128.387 596.256 121.494L602.456 117.914L642.41 152.118L637.588 154.902C617.611 166.436 600.159 174.257 585.234 178.367C570.538 182.344 556.646 183.869 543.558 182.941C530.469 182.013 516.348 179.825 501.193 176.378C503.259 192.155 500.274 207.665 492.237 222.911C484.201 238.157 469.275 252.077 447.461 264.671ZM409.574 229.275C426.106 219.73 437.932 208.129 445.05 194.475C452.398 180.687 454.12 166.966 450.217 153.311L369.619 106.778C337.932 126.399 314.51 143.633 299.355 158.481C284.43 173.197 277.541 186.321 278.689 197.855C279.837 209.389 288.793 219.995 305.555 229.672C323.695 240.146 341.72 244.984 359.631 244.189C377.541 243.128 394.189 238.157 409.574 229.275Z" fill="#F178B6" fill-opacity="0.32"/>
<path fill-rule="evenodd" clip-rule="evenodd" d="M447.497 263.928C426.602 275.992 404.099 284.079 379.988 288.189C355.878 292.299 332.112 292.63 308.691 289.183C285.499 285.604 264.489 278.379 245.66 267.508C226.601 256.504 214.431 244.705 209.15 232.111C203.869 219.251 203.754 206.193 208.806 192.936C213.857 179.413 222.468 166.09 234.638 152.965C246.578 139.708 260.7 127.047 277.003 114.983C293.306 102.654 309.954 91.4519 326.946 81.3764C294.799 62.8163 267.474 54.3317 244.971 55.9226C222.468 57.5134 199.276 65.2026 175.396 78.9901C162.766 86.2816 151.171 95.2302 140.608 105.836C130.275 116.309 122.353 130.296 116.842 147.795L57.5997 123.932C60.8144 110.145 69.3104 95.5616 83.0877 80.1833C96.6354 64.6723 114.546 50.4871 136.819 37.6276C165.292 21.1887 193.306 10.8481 220.861 6.60578C248.186 2.2309 277.692 4.55091 309.38 13.5658C341.068 22.5807 377.233 38.8208 417.876 62.286L486.762 102.058C502.836 111.338 516.843 118.629 528.783 123.932C540.723 128.97 551.975 131.489 562.538 131.489C573.1 131.224 584.352 127.644 596.292 120.75L602.492 117.171L642.446 151.374L637.624 154.158C617.647 165.692 600.195 173.514 585.27 177.624C570.574 181.601 556.682 183.125 543.594 182.197C530.505 181.269 516.384 179.082 501.229 175.635C503.295 191.411 500.31 206.922 492.273 222.168C484.237 237.414 469.311 251.334 447.497 263.928ZM409.61 228.531C426.142 218.986 437.968 207.386 445.086 193.731C452.434 179.944 454.156 166.223 450.253 152.568L369.655 106.035C337.968 125.655 314.546 142.89 299.391 157.738C284.466 172.453 277.577 185.578 278.725 197.112C279.873 208.646 288.829 219.251 305.591 228.929C323.731 239.402 341.756 244.241 359.667 243.446C377.577 242.385 394.225 237.414 409.61 228.531Z" fill="#F178B6" fill-opacity="0.32"/>
<path fill-rule="evenodd" clip-rule="evenodd" d="M447.533 263.184C426.637 275.248 404.134 283.335 380.024 287.445C355.914 291.555 332.148 291.886 308.726 288.439C285.535 284.86 264.524 277.635 245.695 266.764C226.637 255.76 214.467 243.961 209.185 231.367C203.904 218.508 203.789 205.449 208.841 192.192C213.893 178.67 222.503 165.346 234.673 152.222C246.614 138.964 260.735 126.304 277.039 114.24C293.342 101.91 309.989 90.7081 326.981 80.6326C294.834 62.0726 267.509 53.5879 245.006 55.1788C222.503 56.7697 199.312 64.4589 175.431 78.2464C162.802 85.5378 151.206 94.4864 140.643 105.092C130.31 115.565 122.388 129.552 116.878 147.051L57.6351 123.188C60.8499 109.401 69.3459 94.8179 83.1231 79.4395C96.6708 63.9286 114.581 49.7434 136.855 36.8839C165.328 20.4449 193.342 10.1043 220.896 5.862C248.221 1.48712 277.727 3.80713 309.415 12.822C341.103 21.8369 377.268 38.077 417.911 61.5423L486.798 101.314C502.871 110.594 516.878 117.885 528.819 123.188C540.759 128.226 552.01 130.745 562.573 130.745C573.136 130.48 584.387 126.9 596.327 120.007L602.527 116.427L642.481 150.631L637.659 153.415C617.682 164.948 600.231 172.77 585.305 176.88C570.61 180.857 556.718 182.382 543.629 181.454C530.541 180.526 516.419 178.338 501.264 174.891C503.331 190.667 500.346 206.178 492.309 221.424C484.272 236.67 469.347 250.59 447.533 263.184ZM409.645 227.788C426.178 218.242 438.003 206.642 445.122 192.987C452.469 179.2 454.192 165.479 450.288 151.824L369.691 105.291C338.003 124.912 314.582 142.146 299.427 156.994C284.501 171.71 277.613 184.834 278.761 196.368C279.909 207.902 288.864 218.508 305.626 228.185C323.767 238.659 341.792 243.497 359.702 242.702C377.613 241.641 394.26 236.67 409.645 227.788Z" fill="#F178B6" fill-opacity="0.32"/>
<path fill-rule="evenodd" clip-rule="evenodd" d="M447.568 262.441C426.672 274.505 404.17 282.592 380.059 286.702C355.949 290.811 332.183 291.143 308.762 287.696C285.57 284.117 264.56 276.891 245.731 266.021C226.672 255.017 214.502 243.218 209.221 230.624C203.94 217.764 203.825 204.706 208.876 191.449C213.928 177.926 222.539 164.603 234.709 151.478C246.649 138.221 260.771 125.56 277.074 113.496C293.377 101.167 310.025 89.9648 327.017 79.8894C294.87 61.3293 267.545 52.8447 245.042 54.4355C222.539 56.0264 199.347 63.7156 175.466 77.5031C162.837 84.7945 151.241 93.7431 140.679 104.349C130.346 114.822 122.424 128.808 116.913 146.308L57.6706 122.445C60.8853 108.657 69.3813 94.0746 83.1586 78.6962C96.7063 63.1853 114.617 49.0001 136.89 36.1406C165.363 19.7016 193.377 9.36102 220.932 5.11871C248.257 0.743832 277.763 3.06384 309.451 12.0787C341.138 21.0936 377.304 37.3337 417.947 60.799L486.833 100.571C502.907 109.851 516.914 117.142 528.854 122.445C540.794 127.483 552.046 130.002 562.608 130.002C573.171 129.736 584.422 126.157 596.363 119.263L602.563 115.684L642.517 149.887L637.695 152.671C617.718 164.205 600.266 172.027 585.341 176.137C570.645 180.114 556.753 181.638 543.665 180.71C530.576 179.782 516.454 177.595 501.299 174.148C503.366 189.924 500.381 205.435 492.344 220.681C484.307 235.927 469.382 249.847 447.568 262.441ZM409.68 227.044C426.213 217.499 438.039 205.899 445.157 192.244C452.505 178.457 454.227 164.735 450.323 151.081L369.726 104.548C338.039 124.168 314.617 141.403 299.462 156.251C284.537 170.966 277.648 184.091 278.796 195.625C279.944 207.159 288.9 217.764 305.662 227.442C323.802 237.915 341.827 242.754 359.738 241.959C377.648 240.898 394.296 235.927 409.68 227.044Z" fill="#F178B6" fill-opacity="0.32"/>
<path fill-rule="evenodd" clip-rule="evenodd" d="M447.603 261.697C426.708 273.761 404.205 281.848 380.095 285.958C355.984 290.068 332.219 290.399 308.797 286.952C285.605 283.373 264.595 276.148 245.766 265.277C226.708 254.273 214.538 242.474 209.256 229.88C203.975 217.021 203.86 203.962 208.912 190.705C213.964 177.183 222.574 163.859 234.744 150.734C246.685 137.477 260.806 124.817 277.109 112.753C293.413 100.423 310.06 89.2211 327.052 79.1456C294.905 60.5855 267.58 52.1009 245.077 53.6917C222.574 55.2826 199.383 62.9718 175.502 76.7593C162.873 84.0508 151.277 92.9994 140.714 103.605C130.381 114.078 122.459 128.065 116.948 145.564L57.706 121.701C60.9207 107.914 69.4167 93.3308 83.194 77.9524C96.7417 62.4415 114.652 48.2563 136.925 35.3968C165.399 18.9579 193.412 8.61725 220.967 4.37493C248.292 5.65052e-05 277.798 2.32007 309.486 11.335C341.174 20.3499 377.339 36.59 417.982 60.0552L486.869 99.8268C502.942 109.107 516.949 116.398 528.889 121.701C540.83 126.739 552.081 129.258 562.644 129.258C573.206 128.993 584.458 125.413 596.398 118.519L602.598 114.94L642.552 149.144L637.73 151.928C617.753 163.461 600.302 171.283 585.376 175.393C570.681 179.37 556.789 180.895 543.7 179.967C530.612 179.039 516.49 176.851 501.335 173.404C503.401 189.18 500.416 204.691 492.38 219.937C484.343 235.183 469.417 249.103 447.603 261.697ZM409.716 226.301C426.249 216.755 438.074 205.155 445.192 191.5C452.54 177.713 454.262 163.992 450.359 150.337L369.762 103.804C338.074 123.425 314.653 140.659 299.498 155.507C284.572 170.223 277.683 183.347 278.832 194.881C279.98 206.415 288.935 217.021 305.697 226.698C323.837 237.171 341.863 242.01 359.773 241.215C377.684 240.154 394.331 235.183 409.716 226.301Z" fill="#F178B6" fill-opacity="0.32"/>
<path fill-rule="evenodd" clip-rule="evenodd" d="M447.639 260.954C426.744 273.018 404.241 281.105 380.131 285.215C356.02 289.324 332.255 289.656 308.833 286.209C285.641 282.63 264.631 275.404 245.802 264.533C226.743 253.53 214.573 241.731 209.292 229.137C204.011 216.277 203.896 203.219 208.948 189.962C213.999 176.439 222.61 163.116 234.78 149.991C246.721 136.734 260.842 124.073 277.145 112.009C293.448 99.6801 310.096 88.4778 327.088 78.4023C294.941 59.8422 267.616 51.3576 245.113 52.9484C222.61 54.5393 199.418 62.2285 175.538 76.016C162.909 83.3075 151.313 92.2561 140.75 102.862C130.417 113.335 122.495 127.321 116.984 144.821L57.742 120.958C60.9567 107.17 69.4527 92.5875 83.2299 77.2091C96.7776 61.6982 114.688 47.513 136.961 34.6535C165.434 18.2146 193.448 7.87396 221.003 3.63164C248.328 -0.743234 277.834 1.57678 309.522 10.5917C341.21 19.6066 377.375 35.8467 418.018 59.3119L486.905 99.0835C502.978 108.364 516.985 115.655 528.925 120.958C540.866 125.996 552.117 128.515 562.68 128.515C573.242 128.249 584.494 124.67 596.434 117.776L602.634 114.197L642.588 148.4L637.766 151.184C617.789 162.718 600.338 170.54 585.412 174.65C570.716 178.627 556.824 180.151 543.736 179.223C530.648 178.295 516.526 176.108 501.371 172.661C503.437 188.437 500.452 203.948 492.416 219.194C484.379 234.44 469.453 248.36 447.639 260.954ZM409.752 225.557C426.285 216.012 438.11 204.412 445.228 190.757C452.576 176.97 454.298 163.248 450.395 149.593L369.798 103.061C338.11 122.681 314.688 139.916 299.533 154.764C284.608 169.479 277.719 182.604 278.868 194.138C280.016 205.671 288.971 216.277 305.733 225.955C323.873 236.428 341.899 241.267 359.809 240.472C377.72 239.411 394.367 234.44 409.752 225.557Z" fill="#F178B6" fill-opacity="0.32"/>
<path fill-rule="evenodd" clip-rule="evenodd" d="M447.675 260.21C426.779 272.274 404.276 280.361 380.166 284.471C356.056 288.581 332.29 288.912 308.869 285.465C285.677 281.886 264.666 274.661 245.837 263.79C226.779 252.786 214.609 240.987 209.328 228.393C204.046 215.533 203.932 202.475 208.983 189.218C214.035 175.696 222.646 162.372 234.816 149.247C246.756 135.99 260.878 123.33 277.181 111.266C293.484 98.9363 310.131 87.734 327.123 77.6585C294.976 59.0984 267.652 50.6138 245.149 52.2047C222.646 53.7955 199.454 61.4847 175.573 75.2722C162.944 82.5637 151.348 91.5123 140.786 102.118C130.453 112.591 122.531 126.578 117.02 144.077L57.7774 120.214C60.9921 106.427 69.4881 91.8437 83.2654 76.4654C96.8131 60.9544 114.724 46.7692 136.997 33.9097C165.47 17.4708 193.484 7.13018 221.038 2.88787C248.363 -1.48701 277.87 0.833 309.557 9.84789C341.245 18.8628 377.411 35.1029 418.054 58.5681L486.94 98.3398C503.014 107.62 517.021 114.911 528.961 120.214C540.901 125.252 552.153 127.771 562.715 127.771C573.278 127.506 584.529 123.926 596.47 117.032L602.669 113.453L642.624 147.657L637.801 150.441C617.824 161.974 600.373 169.796 585.448 173.906C570.752 177.883 556.86 179.408 543.771 178.48C530.683 177.552 516.561 175.364 501.406 171.917C503.473 187.693 500.488 203.204 492.451 218.45C484.414 233.696 469.489 247.616 447.675 260.21ZM409.787 224.813C426.32 215.268 438.146 203.668 445.264 190.013C452.612 176.226 454.334 162.505 450.43 148.85L369.833 102.317C338.145 121.938 314.724 139.172 299.569 154.02C284.643 168.736 277.755 181.86 278.903 193.394C280.051 204.928 289.006 215.533 305.769 225.211C323.909 235.684 341.934 240.523 359.845 239.728C377.755 238.667 394.403 233.696 409.787 224.813Z" fill="#F178B6" fill-opacity="0.32"/>
</g>
<g filter="url(#filter2_iii_227_2010)">
<path d="M447.71 259.466C426.815 271.531 404.312 279.617 380.201 283.727C356.091 287.837 332.325 288.168 308.904 284.721C285.712 281.142 264.702 273.917 245.873 263.046C226.814 252.042 214.644 240.244 209.363 227.649C204.082 214.79 203.967 201.731 209.019 188.474C214.07 174.952 222.681 161.628 234.851 148.504C246.791 135.246 260.913 122.586 277.216 110.522C293.519 98.1925 310.167 86.9902 327.159 76.9147C295.012 58.3547 267.687 49.87 245.184 51.4609C222.681 53.0518 199.489 60.7409 175.609 74.5284C162.979 81.8199 151.384 90.7685 140.821 101.374C130.488 111.847 122.566 125.834 117.055 143.333L57.8127 119.47C61.0275 105.683 69.5235 91.0999 83.3007 75.7216C96.8484 60.2107 114.759 46.0255 137.032 33.166C165.505 16.727 193.519 6.38641 221.074 2.14409C248.399 -2.23078 277.905 0.0892253 309.593 9.10412C341.281 18.119 377.446 34.3591 418.089 57.8244L486.975 97.596C503.049 106.876 517.056 114.167 528.996 119.47C540.936 124.508 552.188 127.027 562.751 127.027C573.313 126.762 584.565 123.182 596.505 116.289L602.705 112.709L642.659 146.913L637.837 149.697C617.86 161.231 600.408 169.052 585.483 173.162C570.787 177.139 556.895 178.664 543.807 177.736C530.718 176.808 516.597 174.62 501.442 171.173C503.508 186.95 500.523 202.46 492.486 217.706C484.45 232.952 469.524 246.872 447.71 259.466ZM409.823 224.07C426.355 214.525 438.181 202.924 445.299 189.27C452.647 175.482 454.369 161.761 450.466 148.106L369.868 101.573C338.181 121.194 314.759 138.428 299.604 153.276C284.679 167.992 277.79 181.116 278.938 192.65C280.086 204.184 289.042 214.79 305.804 224.467C323.944 234.941 341.969 239.779 359.88 238.984C377.79 237.923 394.438 232.952 409.823 224.07Z" fill="#F178B6" fill-opacity="0.24"/>
</g>
</g>
<defs>
<filter id="filter0_d_227_2010" x="0.717453" y="-3.05176e-05" width="697.224" height="515.506" filterUnits="userSpaceOnUse" color-interpolation-filters="sRGB">
<feFlood flood-opacity="0" result="BackgroundImageFix"/>
<feColorMatrix in="SourceAlpha" type="matrix" values="0 0 0 0 0 0 0 0 0 0 0 0 0 0 0 0 0 0 127 0" result="hardAlpha"/>
<feOffset dy="135.224"/>
<feGaussianBlur stdDeviation="27.6413"/>
<feComposite in2="hardAlpha" operator="out"/>
<feColorMatrix type="matrix" values="0 0 0 0 0 0 0 0 0 0 0 0 0 0 0 0 0 0 0.1 0"/>
<feBlend mode="normal" in2="BackgroundImageFix" result="effect1_dropShadow_227_2010"/>
<feBlend mode="normal" in="SourceGraphic" in2="effect1_dropShadow_227_2010" result="shape"/>
</filter>
<filter id="filter1_ii_227_2010" x="56" y="-78.7995" width="586.624" height="546.977" filterUnits="userSpaceOnUse" color-interpolation-filters="sRGB">
<feFlood flood-opacity="0" result="BackgroundImageFix"/>
<feBlend mode="normal" in="SourceGraphic" in2="BackgroundImageFix" result="shape"/>
<feColorMatrix in="SourceAlpha" type="matrix" values="0 0 0 0 0 0 0 0 0 0 0 0 0 0 0 0 0 0 127 0" result="hardAlpha"/>
<feOffset dy="429.533"/>
<feGaussianBlur stdDeviation="71.5889"/>
<feComposite in2="hardAlpha" operator="arithmetic" k2="-1" k3="1"/>
<feColorMatrix type="matrix" values="0 0 0 0 0.0392157 0 0 0 0 0.0588235 0 0 0 0 0.243137 0 0 0 0.2 0"/>
<feBlend mode="normal" in2="shape" result="effect1_innerShadow_227_2010"/>
<feColorMatrix in="SourceAlpha" type="matrix" values="0 0 0 0 0 0 0 0 0 0 0 0 0 0 0 0 0 0 127 0" result="hardAlpha"/>
<feOffset dy="-79.5432"/>
<feGaussianBlur stdDeviation="39.7716"/>
<feComposite in2="hardAlpha" operator="arithmetic" k2="-1" k3="1"/>
<feColorMatrix type="matrix" values="0 0 0 0 1 0 0 0 0 1 0 0 0 0 1 0 0 0 0.35 0"/>
<feBlend mode="normal" in2="effect1_innerShadow_227_2010" result="effect2_innerShadow_227_2010"/>
</filter>
<filter id="filter2_iii_227_2010" x="57.8127" y="-111.361" width="584.846" height="458.098" filterUnits="userSpaceOnUse" color-interpolation-filters="sRGB">
<feFlood flood-opacity="0" result="BackgroundImageFix"/>
<feBlend mode="normal" in="SourceGraphic" in2="BackgroundImageFix" result="shape"/>
<feColorMatrix in="SourceAlpha" type="matrix" values="0 0 0 0 0 0 0 0 0 0 0 0 0 0 0 0 0 0 127 0" result="hardAlpha"/>
<feOffset dy="59.6574"/>
<feGaussianBlur stdDeviation="37.783"/>
<feComposite in2="hardAlpha" operator="arithmetic" k2="-1" k3="1"/>
<feColorMatrix type="matrix" values="0 0 0 0 0.0392157 0 0 0 0 0.0588235 0 0 0 0 0.243137 0 0 0 0.1 0"/>
<feBlend mode="normal" in2="shape" result="effect1_innerShadow_227_2010"/>
<feColorMatrix in="SourceAlpha" type="matrix" values="0 0 0 0 0 0 0 0 0 0 0 0 0 0 0 0 0 0 127 0" result="hardAlpha"/>
<feOffset dy="23.863"/>
<feGaussianBlur stdDeviation="13.9201"/>
<feComposite in2="hardAlpha" operator="arithmetic" k2="-1" k3="1"/>
<feColorMatrix type="matrix" values="0 0 0 0 1 0 0 0 0 1 0 0 0 0 1 0 0 0 1 0"/>
<feBlend mode="normal" in2="effect1_innerShadow_227_2010" result="effect2_innerShadow_227_2010"/>
<feColorMatrix in="SourceAlpha" type="matrix" values="0 0 0 0 0 0 0 0 0 0 0 0 0 0 0 0 0 0 127 0" result="hardAlpha"/>
<feOffset dy="-111.361"/>
<feGaussianBlur stdDeviation="87.4976"/>
<feComposite in2="hardAlpha" operator="arithmetic" k2="-1" k3="1"/>
<feColorMatrix type="matrix" values="0 0 0 0 1 0 0 0 0 0.854624 0 0 0 0 0.959295 0 0 0 1 0"/>
<feBlend mode="normal" in2="effect2_innerShadow_227_2010" result="effect3_innerShadow_227_2010"/>
</filter>
</defs>
</svg>
