<svg width="465" height="491" viewBox="0 0 465 491" fill="none" xmlns="http://www.w3.org/2000/svg">
<g filter="url(#filter0_d_227_2007)">
<g filter="url(#filter1_ii_227_2007)">
<path d="M378.994 280.995L40 85.2768L86.0063 58.7151L425 254.433L378.994 280.995Z" fill="#007AFF" fill-opacity="0.32"/>
<path fill-rule="evenodd" clip-rule="evenodd" d="M378.994 279.844L40 84.1256L86.0063 57.5639L425 253.282L378.994 279.844Z" fill="#007AFF" fill-opacity="0.32"/>
<path fill-rule="evenodd" clip-rule="evenodd" d="M378.994 278.692L40 82.9744L86.0063 56.4126L425 252.131L378.994 278.692Z" fill="#007AFF" fill-opacity="0.32"/>
<path fill-rule="evenodd" clip-rule="evenodd" d="M378.994 277.541L40 81.8228L86.0063 55.2611L425 250.979L378.994 277.541Z" fill="#007AFF" fill-opacity="0.32"/>
<path fill-rule="evenodd" clip-rule="evenodd" d="M378.994 276.39L40 80.6716L86.0063 54.1098L425 249.828L378.994 276.39Z" fill="#007AFF" fill-opacity="0.32"/>
<path fill-rule="evenodd" clip-rule="evenodd" d="M378.994 275.238L40 79.5204L86.0063 52.9586L425 248.677L378.994 275.238Z" fill="#007AFF" fill-opacity="0.32"/>
<path fill-rule="evenodd" clip-rule="evenodd" d="M378.994 274.087L40 78.3691L86.0063 51.8074L425 247.526L378.994 274.087Z" fill="#007AFF" fill-opacity="0.32"/>
<path fill-rule="evenodd" clip-rule="evenodd" d="M378.994 272.936L40 77.2179L86.0063 50.6562L425 246.374L378.994 272.936Z" fill="#007AFF" fill-opacity="0.32"/>
<path fill-rule="evenodd" clip-rule="evenodd" d="M378.994 271.785L40 76.0667L86.0063 49.505L425 245.223L378.994 271.785Z" fill="#007AFF" fill-opacity="0.32"/>
<path fill-rule="evenodd" clip-rule="evenodd" d="M378.994 270.633L40 74.9151L86.0063 48.3534L425 244.072L378.994 270.633Z" fill="#007AFF" fill-opacity="0.32"/>
<path fill-rule="evenodd" clip-rule="evenodd" d="M378.994 269.482L40 73.7639L86.0063 47.2022L425 242.92L378.994 269.482Z" fill="#007AFF" fill-opacity="0.32"/>
<path fill-rule="evenodd" clip-rule="evenodd" d="M378.994 268.331L40 72.6127L86.0063 46.0509L425 241.769L378.994 268.331Z" fill="#007AFF" fill-opacity="0.32"/>
<path fill-rule="evenodd" clip-rule="evenodd" d="M378.994 267.18L40 71.4615L86.0063 44.8997L425 240.618L378.994 267.18Z" fill="#007AFF" fill-opacity="0.32"/>
<path fill-rule="evenodd" clip-rule="evenodd" d="M378.994 266.028L40 70.3102L86.0063 43.7485L425 239.467L378.994 266.028Z" fill="#007AFF" fill-opacity="0.32"/>
<path fill-rule="evenodd" clip-rule="evenodd" d="M378.994 264.877L40 69.159L86.0063 42.5973L425 238.315L378.994 264.877Z" fill="#007AFF" fill-opacity="0.32"/>
<path fill-rule="evenodd" clip-rule="evenodd" d="M378.994 263.726L40 68.0075L86.0063 41.4457L425 237.164L378.994 263.726Z" fill="#007AFF" fill-opacity="0.32"/>
<path fill-rule="evenodd" clip-rule="evenodd" d="M378.994 262.574L40 66.8562L86.0063 40.2945L425 236.013L378.994 262.574Z" fill="#007AFF" fill-opacity="0.32"/>
<path fill-rule="evenodd" clip-rule="evenodd" d="M378.994 261.423L40 65.705L86.0063 39.1433L425 234.861L378.994 261.423Z" fill="#007AFF" fill-opacity="0.32"/>
<path fill-rule="evenodd" clip-rule="evenodd" d="M378.994 260.272L40 64.5538L86.0063 37.9921L425 233.71L378.994 260.272Z" fill="#007AFF" fill-opacity="0.32"/>
<path fill-rule="evenodd" clip-rule="evenodd" d="M378.994 259.121L40 63.4026L86.0063 36.8408L425 232.559L378.994 259.121Z" fill="#007AFF" fill-opacity="0.32"/>
<path fill-rule="evenodd" clip-rule="evenodd" d="M378.994 257.969L40 62.251L86.0063 35.6893L425 231.407L378.994 257.969Z" fill="#007AFF" fill-opacity="0.32"/>
<path fill-rule="evenodd" clip-rule="evenodd" d="M378.994 256.818L40 61.0998L86.0063 34.538L425 230.256L378.994 256.818Z" fill="#007AFF" fill-opacity="0.32"/>
<path fill-rule="evenodd" clip-rule="evenodd" d="M378.994 255.667L40 59.9486L86.0063 33.3868L425 229.105L378.994 255.667Z" fill="#007AFF" fill-opacity="0.32"/>
<path fill-rule="evenodd" clip-rule="evenodd" d="M378.994 254.515L40 58.7973L86.0063 32.2356L425 227.954L378.994 254.515Z" fill="#007AFF" fill-opacity="0.32"/>
<path fill-rule="evenodd" clip-rule="evenodd" d="M378.994 253.364L40 57.6461L86.0063 31.0844L425 226.802L378.994 253.364Z" fill="#007AFF" fill-opacity="0.32"/>
<path fill-rule="evenodd" clip-rule="evenodd" d="M378.994 252.213L40 56.4949L86.0063 29.9332L425 225.651L378.994 252.213Z" fill="#007AFF" fill-opacity="0.32"/>
<path fill-rule="evenodd" clip-rule="evenodd" d="M378.994 251.061L40 55.3433L86.0063 28.7816L425 224.5L378.994 251.061Z" fill="#007AFF" fill-opacity="0.32"/>
<path fill-rule="evenodd" clip-rule="evenodd" d="M378.994 249.91L40 54.1921L86.0063 27.6304L425 223.348L378.994 249.91Z" fill="#007AFF" fill-opacity="0.32"/>
<path fill-rule="evenodd" clip-rule="evenodd" d="M378.994 248.759L40 53.0409L86.0063 26.4791L425 222.197L378.994 248.759Z" fill="#007AFF" fill-opacity="0.32"/>
<path fill-rule="evenodd" clip-rule="evenodd" d="M378.994 247.608L40 51.8897L86.0063 25.3279L425 221.046L378.994 247.608Z" fill="#007AFF" fill-opacity="0.32"/>
<path fill-rule="evenodd" clip-rule="evenodd" d="M378.994 246.457L40 50.7384L86.0063 24.1767L425 219.895L378.994 246.457Z" fill="#007AFF" fill-opacity="0.32"/>
<path fill-rule="evenodd" clip-rule="evenodd" d="M378.994 245.305L40 49.5872L86.0063 23.0255L425 218.744L378.994 245.305Z" fill="#007AFF" fill-opacity="0.32"/>
<path fill-rule="evenodd" clip-rule="evenodd" d="M378.994 244.154L40 48.4356L86.0063 21.8739L425 217.592L378.994 244.154Z" fill="#007AFF" fill-opacity="0.32"/>
<path fill-rule="evenodd" clip-rule="evenodd" d="M378.994 243.003L40 47.2844L86.0063 20.7227L425 216.441L378.994 243.003Z" fill="#007AFF" fill-opacity="0.32"/>
<path fill-rule="evenodd" clip-rule="evenodd" d="M378.994 241.851L40 46.1332L86.0063 19.5715L425 215.29L378.994 241.851Z" fill="#007AFF" fill-opacity="0.32"/>
<path fill-rule="evenodd" clip-rule="evenodd" d="M378.994 240.7L40 44.982L86.0063 18.4202L425 214.138L378.994 240.7Z" fill="#007AFF" fill-opacity="0.32"/>
<path fill-rule="evenodd" clip-rule="evenodd" d="M378.994 239.549L40 43.8308L86.0063 17.269L425 212.987L378.994 239.549Z" fill="#007AFF" fill-opacity="0.32"/>
<path fill-rule="evenodd" clip-rule="evenodd" d="M378.994 238.397L40 42.6792L86.0063 16.1175L425 211.836L378.994 238.397Z" fill="#007AFF" fill-opacity="0.32"/>
<path fill-rule="evenodd" clip-rule="evenodd" d="M378.994 237.246L40 41.528L86.0063 14.9662L425 210.684L378.994 237.246Z" fill="#007AFF" fill-opacity="0.32"/>
<path fill-rule="evenodd" clip-rule="evenodd" d="M378.994 236.095L40 40.3768L86.0063 13.815L425 209.533L378.994 236.095Z" fill="#007AFF" fill-opacity="0.32"/>
<path fill-rule="evenodd" clip-rule="evenodd" d="M378.994 234.944L40 39.2255L86.0063 12.6638L425 208.382L378.994 234.944Z" fill="#007AFF" fill-opacity="0.32"/>
<path fill-rule="evenodd" clip-rule="evenodd" d="M378.994 233.792L40 38.0743L86.0063 11.5126L425 207.231L378.994 233.792Z" fill="#007AFF" fill-opacity="0.32"/>
<path fill-rule="evenodd" clip-rule="evenodd" d="M378.994 232.641L40 36.9231L86.0063 10.3613L425 206.079L378.994 232.641Z" fill="#007AFF" fill-opacity="0.32"/>
<path fill-rule="evenodd" clip-rule="evenodd" d="M378.994 231.49L40 35.7715L86.0063 9.20978L425 204.928L378.994 231.49Z" fill="#007AFF" fill-opacity="0.32"/>
<path fill-rule="evenodd" clip-rule="evenodd" d="M378.994 230.338L40 34.6203L86.0063 8.05856L425 203.777L378.994 230.338Z" fill="#007AFF" fill-opacity="0.32"/>
<path fill-rule="evenodd" clip-rule="evenodd" d="M378.994 229.187L40 33.4691L86.0063 6.90733L425 202.625L378.994 229.187Z" fill="#007AFF" fill-opacity="0.32"/>
<path fill-rule="evenodd" clip-rule="evenodd" d="M378.994 228.036L40 32.3179L86.0063 5.75611L425 201.474L378.994 228.036Z" fill="#007AFF" fill-opacity="0.32"/>
<path fill-rule="evenodd" clip-rule="evenodd" d="M378.994 226.885L40 31.1666L86.0063 4.60489L425 200.323L378.994 226.885Z" fill="#007AFF" fill-opacity="0.32"/>
<path fill-rule="evenodd" clip-rule="evenodd" d="M378.994 225.734L40 30.0154L86.0063 3.45367L425 199.172L378.994 225.734Z" fill="#007AFF" fill-opacity="0.32"/>
<path fill-rule="evenodd" clip-rule="evenodd" d="M378.994 224.582L40 28.8638L86.0063 2.3021L425 198.02L378.994 224.582Z" fill="#007AFF" fill-opacity="0.32"/>
<path fill-rule="evenodd" clip-rule="evenodd" d="M378.994 223.431L40 27.7126L86.0063 1.15088L425 196.869L378.994 223.431Z" fill="#007AFF" fill-opacity="0.32"/>
</g>
<g filter="url(#filter2_iii_227_2007)">
<path d="M378.994 222.28L40 26.5617L86.0063 0L425 195.718L378.994 222.28Z" fill="#007AFF" fill-opacity="0.24"/>
</g>
</g>
<defs>
<filter id="filter0_d_227_2007" x="0.576778" y="0" width="463.846" height="490.973" filterUnits="userSpaceOnUse" color-interpolation-filters="sRGB">
<feFlood flood-opacity="0" result="BackgroundImageFix"/>
<feColorMatrix in="SourceAlpha" type="matrix" values="0 0 0 0 0 0 0 0 0 0 0 0 0 0 0 0 0 0 127 0" result="hardAlpha"/>
<feOffset dy="170.554"/>
<feGaussianBlur stdDeviation="19.7116"/>
<feComposite in2="hardAlpha" operator="out"/>
<feColorMatrix type="matrix" values="0 0 0 0 0 0 0 0 0 0 0 0 0 0 0 0 0 0 0.1 0"/>
<feBlend mode="normal" in2="BackgroundImageFix" result="effect1_dropShadow_227_2007"/>
<feBlend mode="normal" in="SourceGraphic" in2="effect1_dropShadow_227_2007" result="shape"/>
</filter>
<filter id="filter1_ii_227_2007" x="40" y="-54.7686" width="385" height="436.419" filterUnits="userSpaceOnUse" color-interpolation-filters="sRGB">
<feFlood flood-opacity="0" result="BackgroundImageFix"/>
<feBlend mode="normal" in="SourceGraphic" in2="BackgroundImageFix" result="shape"/>
<feColorMatrix in="SourceAlpha" type="matrix" values="0 0 0 0 0 0 0 0 0 0 0 0 0 0 0 0 0 0 127 0" result="hardAlpha"/>
<feOffset dy="301.965"/>
<feGaussianBlur stdDeviation="50.3275"/>
<feComposite in2="hardAlpha" operator="arithmetic" k2="-1" k3="1"/>
<feColorMatrix type="matrix" values="0 0 0 0 0.0392157 0 0 0 0 0.0588235 0 0 0 0 0.243137 0 0 0 0.2 0"/>
<feBlend mode="normal" in2="shape" result="effect1_innerShadow_227_2007"/>
<feColorMatrix in="SourceAlpha" type="matrix" values="0 0 0 0 0 0 0 0 0 0 0 0 0 0 0 0 0 0 127 0" result="hardAlpha"/>
<feOffset dy="-55.9195"/>
<feGaussianBlur stdDeviation="27.9597"/>
<feComposite in2="hardAlpha" operator="arithmetic" k2="-1" k3="1"/>
<feColorMatrix type="matrix" values="0 0 0 0 1 0 0 0 0 1 0 0 0 0 1 0 0 0 0.35 0"/>
<feBlend mode="normal" in2="effect1_innerShadow_227_2007" result="effect2_innerShadow_227_2007"/>
</filter>
<filter id="filter2_iii_227_2007" x="40" y="-78.2872" width="385" height="342.507" filterUnits="userSpaceOnUse" color-interpolation-filters="sRGB">
<feFlood flood-opacity="0" result="BackgroundImageFix"/>
<feBlend mode="normal" in="SourceGraphic" in2="BackgroundImageFix" result="shape"/>
<feColorMatrix in="SourceAlpha" type="matrix" values="0 0 0 0 0 0 0 0 0 0 0 0 0 0 0 0 0 0 127 0" result="hardAlpha"/>
<feOffset dy="41.9396"/>
<feGaussianBlur stdDeviation="26.5617"/>
<feComposite in2="hardAlpha" operator="arithmetic" k2="-1" k3="1"/>
<feColorMatrix type="matrix" values="0 0 0 0 0.0392157 0 0 0 0 0.0588235 0 0 0 0 0.243137 0 0 0 0.1 0"/>
<feBlend mode="normal" in2="shape" result="effect1_innerShadow_227_2007"/>
<feColorMatrix in="SourceAlpha" type="matrix" values="0 0 0 0 0 0 0 0 0 0 0 0 0 0 0 0 0 0 127 0" result="hardAlpha"/>
<feOffset dy="16.7758"/>
<feGaussianBlur stdDeviation="9.7859"/>
<feComposite in2="hardAlpha" operator="arithmetic" k2="-1" k3="1"/>
<feColorMatrix type="matrix" values="0 0 0 0 1 0 0 0 0 1 0 0 0 0 1 0 0 0 1 0"/>
<feBlend mode="normal" in2="effect1_innerShadow_227_2007" result="effect2_innerShadow_227_2007"/>
<feColorMatrix in="SourceAlpha" type="matrix" values="0 0 0 0 0 0 0 0 0 0 0 0 0 0 0 0 0 0 127 0" result="hardAlpha"/>
<feOffset dy="-78.2872"/>
<feGaussianBlur stdDeviation="61.5114"/>
<feComposite in2="hardAlpha" operator="arithmetic" k2="-1" k3="1"/>
<feColorMatrix type="matrix" values="0 0 0 0 0.741585 0 0 0 0 0.865219 0 0 0 0 1 0 0 0 1 0"/>
<feBlend mode="normal" in2="effect2_innerShadow_227_2007" result="effect3_innerShadow_227_2007"/>
</filter>
</defs>
</svg>
