<svg width="25" height="25" viewBox="0 0 25 25" fill="none" xmlns="http://www.w3.org/2000/svg">
<mask id="mask0_1377_3250" style="mask-type:alpha" maskUnits="userSpaceOnUse" x="0" y="0" width="25" height="24">
<rect x="0.5" width="24" height="24" fill="#D9D9D9"/>
</mask>
<g mask="url(#mask0_1377_3250)">
<path d="M4.5 15.8845V14.8845H16.8462V15.8845H4.5ZM4.5 12.5V11.5H16.8462V12.5H4.5ZM4.5 9.1155V8.1155H16.8462V9.1155H4.5ZM19.8845 16C19.7102 16 19.5641 15.9428 19.4462 15.8285C19.3282 15.7143 19.2693 15.5728 19.2693 15.4037C19.2693 15.2241 19.3282 15.0734 19.4462 14.9518C19.5641 14.8301 19.7102 14.7692 19.8845 14.7692C20.059 14.7692 20.2052 14.8301 20.323 14.9518C20.441 15.0734 20.5 15.2241 20.5 15.4037C20.5 15.5728 20.441 15.7143 20.323 15.8285C20.2052 15.9428 20.059 16 19.8845 16ZM19.8845 12.6345C19.7102 12.6345 19.5641 12.5772 19.4462 12.4625C19.3282 12.3478 19.2693 12.1937 19.2693 12C19.2693 11.8312 19.3282 11.6896 19.4462 11.5753C19.5641 11.4609 19.7102 11.4037 19.8845 11.4037C20.059 11.4037 20.2052 11.4609 20.323 11.5753C20.441 11.6896 20.5 11.8312 20.5 12C20.5 12.1937 20.441 12.3478 20.323 12.4625C20.2052 12.5772 20.059 12.6345 19.8845 12.6345ZM19.8845 9.23075C19.7102 9.23075 19.5641 9.17358 19.4462 9.05925C19.3282 8.94508 19.2693 8.8035 19.2693 8.6345C19.2693 8.45483 19.3282 8.30417 19.4462 8.1825C19.5641 8.06083 19.7102 8 19.8845 8C20.059 8 20.2052 8.06083 20.323 8.1825C20.441 8.30417 20.5 8.45483 20.5 8.6345C20.5 8.8035 20.441 8.94508 20.323 9.05925C20.2052 9.17358 20.059 9.23075 19.8845 9.23075Z" fill="#A0A0B5"/>
</g>
</svg>
