<svg width="28" height="28" viewBox="0 0 28 28" fill="none" xmlns="http://www.w3.org/2000/svg">
<rect width="28" height="28" rx="6" fill="white"/>
<path d="M6.1155 20C5.67117 20 5.29083 19.8418 4.9745 19.5255C4.65817 19.2092 4.5 18.8288 4.5 18.3845V9.6155C4.5 9.17117 4.65817 8.79083 4.9745 8.4745C5.29083 8.15817 5.67117 8 6.1155 8H14.8845C15.3288 8 15.7092 8.15817 16.0255 8.4745C16.3418 8.79083 16.5 9.17117 16.5 9.6155V18.3845C16.5 18.8288 16.3418 19.2092 16.0255 19.5255C15.7092 19.8418 15.3288 20 14.8845 20H6.1155ZM19.3173 13C19.0788 13 18.8829 12.9234 18.7298 12.7702C18.5766 12.6171 18.5 12.4213 18.5 12.1828V8.81725C18.5 8.57875 18.5766 8.38292 18.7298 8.22975C18.8829 8.07658 19.0788 8 19.3173 8H22.6828C22.9213 8 23.1171 8.07658 23.2703 8.22975C23.4234 8.38292 23.5 8.57875 23.5 8.81725V12.1828C23.5 12.4213 23.4234 12.6171 23.2703 12.7702C23.1171 12.9234 22.9213 13 22.6828 13H19.3173ZM19.5 12H22.5V9H19.5V12ZM6.1155 19H14.8845C15.064 19 15.2115 18.9423 15.327 18.827C15.4423 18.7115 15.5 18.564 15.5 18.3845V9.6155C15.5 9.436 15.4423 9.2885 15.327 9.173C15.2115 9.05767 15.064 9 14.8845 9H6.1155C5.936 9 5.7885 9.05767 5.673 9.173C5.55767 9.2885 5.5 9.436 5.5 9.6155V18.3845C5.5 18.564 5.55767 18.7115 5.673 18.827C5.7885 18.9423 5.936 19 6.1155 19ZM6.69225 16.9038H14.3077L11.875 13.6537L10 16.1538L8.625 14.3288L6.69225 16.9038ZM19.3173 20C19.0788 20 18.8829 19.9234 18.7298 19.7703C18.5766 19.6171 18.5 19.4212 18.5 19.1827V15.8173C18.5 15.5788 18.5766 15.3829 18.7298 15.2298C18.8829 15.0766 19.0788 15 19.3173 15H22.6828C22.9213 15 23.1171 15.0766 23.2703 15.2298C23.4234 15.3829 23.5 15.5788 23.5 15.8173V19.1827C23.5 19.4212 23.4234 19.6171 23.2703 19.7703C23.1171 19.9234 22.9213 20 22.6828 20H19.3173ZM19.5 19H22.5V16H19.5V19Z" fill="#2D1E63"/>
</svg>
